<?xml version="1.0" encoding="utf-8"?>
<!-- Generator: Adobe Illustrator 18.0.0, SVG Export Plug-In . SVG Version: 6.00 Build 0)  -->
<!DOCTYPE svg PUBLIC "-//W3C//DTD SVG 1.1//EN" "http://www.w3.org/Graphics/SVG/1.1/DTD/svg11.dtd" [
	<!ENTITY ns_flows "http://ns.adobe.com/Flows/1.0/">
	<!ENTITY ns_extend "http://ns.adobe.com/Extensibility/1.0/">
	<!ENTITY ns_ai "http://ns.adobe.com/AdobeIllustrator/10.0/">
	<!ENTITY ns_graphs "http://ns.adobe.com/Graphs/1.0/">
	<!ENTITY ns_vars "http://ns.adobe.com/Variables/1.0/">
	<!ENTITY ns_imrep "http://ns.adobe.com/ImageReplacement/1.0/">
	<!ENTITY ns_sfw "http://ns.adobe.com/SaveForWeb/1.0/">
	<!ENTITY ns_custom "http://ns.adobe.com/GenericCustomNamespace/1.0/">
	<!ENTITY ns_adobe_xpath "http://ns.adobe.com/XPath/1.0/">
]>
<svg version="1.1" id="logo" xmlns:x="&ns_extend;" xmlns:i="&ns_ai;" xmlns:graph="&ns_graphs;"
	 xmlns="http://www.w3.org/2000/svg" xmlns:xlink="http://www.w3.org/1999/xlink" xmlns:a="http://ns.adobe.com/AdobeSVGViewerExtensions/3.0/"
	 x="0px" y="0px" width="233.87px" height="84.61px" viewBox="0 0 233.87 84.61" style="enable-background:new 0 0 233.87 84.61;"
	 xml:space="preserve">
<style type="text/css">
	.st0{fill:#154273;}
	.st1{fill:#FFFFFF;}
</style>
<metadata>
	<sfw  xmlns="&ns_sfw;">
		<slices></slices>
		<sliceSourceBounds  width="228.47" height="80.39" y="-164.82" x="175.61" bottomLeftOrigin="true"></sliceSourceBounds>
	</sfw>
</metadata>
<g>
	<rect x="0" y="0" class="st0" width="44" height="77"/>
	<path class="st1" d="M22.76,57.01H22v-2.12h0.76V57.01z M26.21,47.66h-0.76v-2.12h0.76V47.66z M12.05,44c-0.06,0-0.45,0-0.45,0.08
		c0,0.08,0.18,0.04,0.45,0.09c0.61,0.1,0.85,0.41,1.28,0.41c0.39,0,0.79-0.26,0.63-0.83c-0.03-0.09-0.08-0.07-0.09-0.01
		c-0.06,0.25-0.37,0.4-0.7,0.4C12.77,44.14,12.68,44,12.05,44z M7.84,46.12c0.07,0.09,0.79,1.03-0.32,1.39
		c-0.05,0.02-0.07,0.06,0.01,0.1c0.82,0.34,1.22-0.29,1.22-0.29c0.41,0.94-0.22,1.46-0.22,1.46c0.09,0.17,0.48,0.45,1.07,0.59
		c0.22-0.12,0.54-0.35,0.67-0.71c0,0,0.16,0.41,0.01,0.8c1.67,0.15,2.26-1.18,3.55-0.94c0.04,0.01,0.05-0.02,0.05-0.06
		c0-0.82-0.5-2.33-2.1-2.64c-1.59-0.31-1.16-0.96-1.16-0.96c0.67-0.03,1.06,0.26,1.06,0.26c0.12-0.2-0.05-0.42-0.05-0.42
		c0.06-0.08,0.1-0.35,0.1-0.35c-0.75,0-0.95-0.16-0.95-0.16c-0.12-0.45,0.2-1.08,1.32-0.4c0.28-0.25,0.26-0.63,0.26-0.63
		c0.08-0.04,0.14-0.17,0.14-0.23c0-0.19-0.9-0.69-1.13-0.75c-0.06-0.27-0.4-0.66-1.46-0.52c-0.5,0.06-0.86-0.07-0.69-0.36
		c0.03-0.05-0.06-0.06-0.11-0.01c-0.12,0.12-0.27,0.44,0.16,0.66c0.48,0.24,0.51,0.73,0.52,0.8c0.01,0.1-0.12,0.11-0.14,0.01
		c-0.22-0.82-1.34-0.99-2-0.56c0.04,0.44,0.51,0.73,0.77,0.73c0.15,0,0.35-0.15,0.35-0.35c0-0.1,0.05-0.09,0.08-0.01
		c0.11,0.29-0.32,0.89-0.96,0.53c-0.65,0.65-0.39,1.46-0.33,1.75c0.12,0.53-0.14,1.05-0.62,0.81c-0.02-0.01-0.05-0.02-0.05,0.04
		C6.89,46.03,7.32,46.41,7.84,46.12z M11.42,42.84c-0.3,0.34-0.8,0.26-0.92-0.3C11.13,42.51,11.4,42.57,11.42,42.84z M30.82,44.14
		c-0.33,0-0.64-0.14-0.7-0.4c-0.01-0.06-0.07-0.09-0.09,0.01c-0.16,0.56,0.24,0.83,0.63,0.83c0.43,0,0.67-0.31,1.28-0.41
		c0.27-0.05,0.45,0,0.45-0.09c0-0.08-0.4-0.08-0.45-0.08C31.31,44,31.23,44.14,30.82,44.14z M37.11,45.7c0-0.06-0.02-0.05-0.05-0.04
		c-0.48,0.24-0.74-0.28-0.62-0.81c0.07-0.3,0.33-1.1-0.33-1.75c-0.64,0.37-1.07-0.24-0.96-0.53c0.03-0.08,0.08-0.09,0.08,0.01
		c0,0.2,0.21,0.35,0.35,0.35c0.26,0,0.73-0.29,0.77-0.73c-0.66-0.43-1.78-0.26-2,0.56c-0.03,0.1-0.15,0.09-0.14-0.01
		c0-0.07,0.03-0.56,0.52-0.8c0.44-0.22,0.28-0.54,0.16-0.66c-0.05-0.05-0.14-0.04-0.11,0.01c0.17,0.29-0.19,0.42-0.69,0.36
		c-1.05-0.14-1.4,0.25-1.46,0.52c-0.23,0.06-1.13,0.56-1.13,0.75c0,0.06,0.05,0.19,0.14,0.23c0,0-0.02,0.38,0.26,0.63
		c1.12-0.68,1.43-0.04,1.32,0.4c0,0-0.2,0.16-0.95,0.16c0,0,0.04,0.27,0.1,0.35c0,0-0.17,0.22-0.05,0.42c0,0,0.39-0.29,1.06-0.26
		c0,0,0.43,0.65-1.16,0.96c-1.59,0.31-2.1,1.81-2.1,2.64c0,0.04,0.02,0.06,0.05,0.06c1.29-0.24,1.88,1.1,3.55,0.94
		c-0.15-0.39,0.01-0.8,0.01-0.8c0.13,0.35,0.45,0.59,0.67,0.71c0.59-0.13,0.98-0.42,1.07-0.59c0,0-0.63-0.52-0.22-1.46
		c0,0,0.4,0.63,1.22,0.29c0.07-0.03,0.06-0.08,0.01-0.1c-1.11-0.36-0.39-1.29-0.32-1.39C36.68,46.41,37.11,46.03,37.11,45.7z
		 M33.49,42.54c-0.12,0.56-0.62,0.64-0.92,0.3C32.6,42.57,32.87,42.51,33.49,42.54z M21.71,33.15c0,0.14,0.06,0.26,0.11,0.33
		c0.1,0.14,0.08,0.22,0.04,0.26c-0.05,0.05-0.12,0.06-0.26-0.04c-0.07-0.05-0.19-0.11-0.33-0.11c-0.24,0-0.36,0.16-0.36,0.29
		c0,0.14,0.12,0.29,0.36,0.29c0.14,0,0.26-0.06,0.33-0.11c0.14-0.1,0.22-0.08,0.26-0.04c0.05,0.05-0.02,0.53-0.08,0.91
		c-0.4,0.08-0.59,0.4-0.59,0.59c0,0.48,0.51,0.76,0.82,0.92c0.3-0.16,0.82-0.44,0.82-0.92c0-0.19-0.19-0.51-0.59-0.59
		c-0.05-0.38-0.12-0.87-0.08-0.91c0.05-0.05,0.12-0.06,0.26,0.04c0.07,0.05,0.19,0.11,0.33,0.11c0.24,0,0.36-0.16,0.36-0.29
		c0-0.14-0.12-0.29-0.36-0.29c-0.14,0-0.26,0.06-0.33,0.11c-0.14,0.1-0.22,0.08-0.26,0.04c-0.05-0.05-0.06-0.12,0.04-0.26
		c0.05-0.07,0.11-0.19,0.11-0.33c0-0.24-0.16-0.36-0.29-0.36C21.86,32.79,21.71,32.91,21.71,33.15z M22,36.72
		c-0.32,0-0.59,0.26-0.59,0.59c0,0.32,0.26,0.59,0.59,0.59c0.32,0,0.59-0.26,0.59-0.59C22.59,36.98,22.32,36.72,22,36.72z M22,42.35
		c2.35,0,3.67,0.45,3.67,0.45c0.01-1.18,0-1.85,0.68-1.75c-0.37-1,1.23-1.39,1.23-2.68c0-0.85-0.6-0.95-0.78-0.95
		c-0.53,0-0.45,0.35-0.9,0.35c-0.06,0-0.11-0.01-0.11,0.03c0,0.15,0.13,0.4,0.33,0.4c0.28,0,0.28-0.28,0.49-0.28
		c0.09,0,0.22,0.07,0.22,0.36c0,0.55-0.36,1.16-0.79,1.64c-0.1-0.14-0.23-0.22-0.39-0.22c-0.25,0-0.47,0.26-0.47,0.59
		c0,0.12,0.02,0.21,0.06,0.31c-0.14,0.08-0.27,0.12-0.36,0.12c-0.19,0-0.48-0.08-0.48-0.5c0-0.94,1.26-1.77,1.26-2.96
		c0-0.57-0.38-1.14-1.17-1.14c-0.85,0-0.69,0.78-1.43,0.78c-0.03,0-0.06,0.01-0.06,0.04c0,0.05,0.13,0.48,0.51,0.48
		c0.41,0,0.52-0.71,0.88-0.71c0.14,0,0.34,0.08,0.34,0.56c0,0.37-0.18,0.97-0.45,1.55c-0.1-0.1-0.23-0.17-0.37-0.17
		c-0.32,0-0.54,0.31-0.54,0.67c0,0.23,0.09,0.45,0.25,0.6c-0.19,0.24-0.38,0.43-0.63,0.43c-0.51,0-0.73-0.29-0.73-0.6
		c0-0.34,0.62-0.46,0.62-1c0-0.36-0.23-0.57-0.46-0.57c-0.24,0-0.37,0.16-0.39,0.16c-0.03,0-0.15-0.16-0.39-0.16
		c-0.23,0-0.46,0.2-0.46,0.57c0,0.53,0.62,0.66,0.62,1c0,0.31-0.22,0.6-0.73,0.6c-0.26,0-0.45-0.19-0.63-0.43
		c0.16-0.15,0.25-0.37,0.25-0.6c0-0.37-0.23-0.67-0.54-0.67c-0.15,0-0.28,0.07-0.37,0.17c-0.26-0.58-0.45-1.18-0.45-1.55
		c0-0.48,0.2-0.56,0.34-0.56c0.36,0,0.48,0.71,0.88,0.71c0.38,0,0.51-0.43,0.51-0.48c0-0.03-0.03-0.04-0.06-0.04
		c-0.74,0-0.58-0.78-1.43-0.78c-0.79,0-1.17,0.57-1.17,1.14c0,1.19,1.26,2.02,1.26,2.96c0,0.42-0.29,0.5-0.48,0.5
		c-0.1,0-0.22-0.05-0.36-0.12c0.04-0.1,0.06-0.19,0.06-0.31c0-0.33-0.22-0.59-0.47-0.59c-0.16,0-0.29,0.08-0.39,0.22
		c-0.43-0.47-0.79-1.09-0.79-1.64c0-0.28,0.13-0.36,0.22-0.36c0.21,0,0.21,0.28,0.49,0.28c0.21,0,0.33-0.26,0.33-0.4
		c0-0.04-0.06-0.03-0.11-0.03c-0.45,0-0.37-0.35-0.9-0.35c-0.18,0-0.78,0.1-0.78,0.95c0,1.3,1.6,1.69,1.23,2.68
		c0.68-0.1,0.67,0.56,0.68,1.75C18.33,42.8,19.65,42.35,22,42.35z M17.7,44.1c-0.64,0.14-1.1,0.27-1.3,0.33
		c0.01-0.28,0.12-0.54,0.37-0.6c0.03-0.01,0.04-0.05,0.01-0.07c-0.57-0.38-0.87,0.35-0.88,0.37c-0.2-0.02-0.51,0.05-0.51,0.32
		c0,0.82-1.86,1.27-2.3,1.33c0.76,0.29,1.08,1.25,1.08,1.25c0.55-0.55,1.2-1.04,1.34-1.04c0.15,0,0.2,0.18,0.21,0.29
		c0,0.04,0.04,0.05,0.06,0.02c0.29-0.43,0.15-0.53,0.13-0.66c-0.02-0.1,0.01-0.48,0.43-0.43v5.44l-0.22,0.04
		c-0.1,0.02-0.89-0.66-1.81-1.29c-0.91-0.63-1.4-0.25-2.44,0.31c-1.36,0.74-2.73,0.07-2.73,0.07c-1.17,0.84-1.57,3.26-1.57,3.26
		c-0.23,0.1-0.62,0.21-0.99,0.21c-0.89,0-1.06-0.54-1.06-0.87c0-1.38,1.73-1.97,1.73-3.33c0-0.33-0.15-1.67-1.81-1.67
		c-0.21,0-1.48,0-1.49,0c-0.62,0-0.78-0.45-0.86-0.62C3.06,46.7,3,46.74,3.02,46.79c0.05,0.11-0.07,0.29-0.07,0.63
		c0,0.55,0.32,0.88,0.93,0.88c0.28,0,0.53-0.08,0.62-0.13c0.06-0.03,0.09,0.02,0.06,0.05c-0.26,0.31-0.28,0.88-0.18,1.02
		c0.03,0.03,0.06,0.02,0.06,0c0.15-0.58,0.69-1.14,1.43-1.14c0.9,0,0.9,0.77,0.9,0.95c0,1.11-1.95,1.92-1.95,3.44
		c0,1.55,1.63,1.88,2.58,1.63c-0.06,1.55-1.83,2.07-1.88,0.97c0-0.05-0.04-0.07-0.07,0c-0.22,0.55-0.14,1.03,0.55,1.18
		c0.05,0.01,0.02,0.04-0.02,0.07C5.31,56.79,5.68,58.5,5.71,59c0.05,0.72-0.67,0.64-0.73,0.62c-0.03-0.01-0.06,0-0.01,0.06
		c0.51,0.62,1.14,0.05,1.14,0.05c0.48,0.15,0.18,0.56-0.14,0.77c-0.05,0.03-0.05,0.07,0.01,0.07c0.07,0,0.81,0.07,0.94-0.52
		c0.33,0.39,0.81,0.25,0.91,0.2c0.14-0.07,0.83-0.32,0.9,0.45c0,0.06,0.04,0.02,0.06-0.01c0.52-0.66-0.04-1.06-0.35-1.11
		c0.03-0.04,0.44-0.38,0.82,0.1c0.03,0.03,0.05,0.04,0.05-0.03c0.04-0.83-0.63-0.91-1.07-0.55c-0.02-0.09-0.17-0.55,0.49-0.54
		c0.02,0,0.05-0.02,0.01-0.06c-0.51-0.54-0.94-0.05-1.03,0.07c-0.23,0.27-0.8,0.16-0.85,0.16c0.18-2.89,2.72-1.87,3.07-3.27
		c0.02-0.07,0.05-0.05,0.06-0.02c0.1,0.34,0.96,0.39,1.12-0.28c0.01-0.04,0-0.07-0.03-0.04c-0.74,0.74-2.4-1.56-0.13-3.43
		c1.93-1.59,3.67-0.71,4.32-0.18c0.03,0.23-0.1,0.31-0.19,0.33c-0.03,0.01-0.04,0.04,0.01,0.06c0.18,0.07,0.44,0.05,0.57-0.12
		c0.42,0.29,0.06,0.66-0.11,0.76c-0.04,0.03-0.02,0.05,0.01,0.06c0.38,0.07,0.69-0.32,0.71-0.54l0.06,0.04v1.64
		c0,2.34,2.7,2.66,5.66,4.64c2.96-1.98,5.66-2.31,5.66-4.64v-1.64l0.06-0.04c0.02,0.22,0.33,0.61,0.71,0.54
		c0.04-0.01,0.05-0.03,0.01-0.06c-0.17-0.1-0.52-0.47-0.11-0.76c0.12,0.17,0.38,0.19,0.57,0.12c0.05-0.02,0.04-0.05,0.01-0.06
		c-0.09-0.03-0.23-0.1-0.19-0.33c0.66-0.52,2.39-1.41,4.32,0.18c2.26,1.87,0.6,4.17-0.13,3.43c-0.03-0.03-0.04,0-0.03,0.04
		c0.16,0.68,1.02,0.63,1.12,0.28c0.01-0.03,0.04-0.05,0.06,0.02c0.35,1.4,2.9,0.38,3.07,3.27c-0.05,0.01-0.62,0.11-0.85-0.16
		c-0.1-0.12-0.52-0.61-1.03-0.07c-0.03,0.03,0,0.06,0.01,0.06c0.66-0.02,0.52,0.45,0.49,0.54c-0.44-0.36-1.11-0.29-1.07,0.55
		c0,0.07,0.03,0.06,0.05,0.03c0.38-0.48,0.79-0.13,0.82-0.1c-0.31,0.05-0.87,0.45-0.35,1.11c0.02,0.03,0.05,0.07,0.06,0.01
		c0.07-0.78,0.76-0.52,0.9-0.45c0.1,0.05,0.58,0.19,0.91-0.2c0.13,0.59,0.87,0.52,0.94,0.52c0.05,0,0.06-0.04,0.01-0.07
		c-0.32-0.21-0.61-0.62-0.14-0.77c0,0,0.63,0.57,1.14-0.05c0.04-0.06,0.02-0.07-0.01-0.06c-0.06,0.02-0.78,0.11-0.73-0.62
		c0.03-0.5,0.4-2.21-0.28-2.64c-0.04-0.03-0.07-0.05-0.02-0.07c0.69-0.15,0.78-0.63,0.55-1.18c-0.03-0.07-0.07-0.06-0.07,0
		c-0.05,1.11-1.82,0.58-1.88-0.97c0.95,0.24,2.58-0.09,2.58-1.63c0-1.52-1.95-2.34-1.95-3.44c0-0.19,0-0.95,0.9-0.95
		c0.74,0,1.28,0.55,1.43,1.14c0.01,0.03,0.04,0.04,0.06,0c0.11-0.14,0.09-0.72-0.18-1.02c-0.03-0.03,0-0.08,0.06-0.05
		c0.08,0.05,0.34,0.13,0.62,0.13c0.6,0,0.93-0.33,0.93-0.88c0-0.35-0.12-0.52-0.07-0.63c0.02-0.05-0.04-0.09-0.07-0.02
		c-0.09,0.17-0.24,0.62-0.86,0.62c-0.01,0-1.27,0-1.49,0c-1.66,0-1.81,1.34-1.81,1.67c0,1.36,1.73,1.95,1.73,3.33
		c0,0.32-0.16,0.87-1.06,0.87c-0.37,0-0.75-0.1-0.99-0.21c0,0-0.4-2.42-1.57-3.26c0,0-1.37,0.67-2.73-0.07
		c-1.04-0.56-1.53-0.94-2.44-0.31c-0.91,0.63-1.71,1.31-1.8,1.29l-0.22-0.04v-5.44c0.42-0.04,0.45,0.33,0.43,0.43
		c-0.02,0.13-0.16,0.23,0.13,0.66c0.02,0.03,0.06,0.02,0.06-0.02c0.01-0.11,0.07-0.29,0.21-0.29c0.14,0,0.79,0.49,1.34,1.04
		c0,0,0.32-0.96,1.08-1.25c-0.43-0.07-2.3-0.52-2.3-1.33c0-0.27-0.31-0.34-0.51-0.32c-0.01-0.02-0.31-0.75-0.88-0.37
		c-0.03,0.02-0.02,0.06,0.01,0.07c0.25,0.06,0.36,0.32,0.37,0.6c-0.54-0.17-2.86-0.82-5.6-0.82c-1.33,0-2.56,0.15-3.54,0.33v1.89
		H17.7V44.1L17.7,44.1 M12.64,63.42c-0.2-0.08-0.34-0.21-0.34-0.48v-1.17c-0.34-0.12-1.25-0.47-3.08-0.47c-1.52,0-2,0.34-2.02,0.46
		l-0.4,2.23c0,0,0.62-0.56,2.82-0.42c2.66,0.17,5.41,1.74,5.41,0.07v-0.98C12.94,62.66,12.64,63.32,12.64,63.42z M28.98,62.66v0.98
		c0,1.67,2.75,0.1,5.41-0.07c2.2-0.14,2.82,0.42,2.82,0.42l-0.4-2.23c-0.02-0.12-0.5-0.46-2.02-0.46c-1.83,0-2.75,0.35-3.08,0.47
		v1.17c0,0.27-0.13,0.4-0.34,0.48C31.36,63.32,31.06,62.66,28.98,62.66z M22,61.65c4.28,0,8.62,0.22,9.19,0.87
		c0.05,0.05,0.06,0,0.06-0.04l0-2.27c0-0.66-4.48-1.05-9.25-1.05c-4.77,0-9.25,0.38-9.25,1.05l0,2.27c0,0.04,0.02,0.09,0.06,0.04
		C13.38,61.87,17.72,61.65,22,61.65z M18.19,50.96l-0.43-0.11l-0.04,0.05l-0.5-0.22c0,0,0.37,0,0.45,0c0.04,0,0.04-0.03,0.02-0.05
		c-0.2-0.2-0.38-0.38-0.38-0.38s0.2,0.08,0.5,0.18c0.03,0.01,0.05-0.01,0.03-0.03c-0.14-0.21-0.33-0.48-0.33-0.48
		s0.4,0.27,0.49,0.33c0.03,0.02,0.05,0,0.04-0.03c-0.11-0.27-0.23-0.57-0.23-0.57l0.44,0.42c0.02,0.02,0.04,0.01,0.04-0.02
		c-0.04-0.2-0.12-0.57-0.12-0.57l0.33,0.48c0.02,0.03,0.04,0.02,0.04-0.01c0-0.09,0.01-0.52,0.01-0.52s0.14,0.31,0.21,0.48
		c0.01,0.03,0.04,0.03,0.06-0.01c0.02-0.05,0.17-0.4,0.17-0.4l0.02,0.54l-0.07,0.01l-0.09,0.65c0.65-0.15,1.45-1.26,2.07-1.26
		c0.73,0,1,0.86,2.36,0.42c0.34,0.51,0.46,0.95,0.59,1.56c0.52,0.49,1.26,0.33,1.26-0.19c0-0.7-0.77-0.84-0.77-1.57
		c0-0.33,0.23-0.8,0.86-0.8c0.33,0,0.82,0.14,1.1,0.14c0.33,0,0.4-0.24,0.44-0.34c0.03-0.07,0.12-0.05,0.11,0.01
		c-0.01,0.07,0.04,0.16,0.04,0.32c0,0.46-0.68,0.52-0.76,0.47c-0.03-0.02-0.06,0.01-0.03,0.03c0.1,0.08,0.08,0.36-0.04,0.53
		c-0.01,0.02-0.03,0.02-0.04,0c-0.07-0.33-0.46-0.74-0.81-0.74c-0.13,0-0.38,0.07-0.38,0.37c0,0.42,0.84,0.8,0.84,1.66
		c0,0.9-0.89,1.11-1.79,0.89c0.03,0.85,1.3,1.36,1.33,0.75c0-0.04,0.02-0.02,0.04,0c0.19,0.26,0.1,0.46-0.14,0.56
		c0.22,0.1,0.26,0.55,0.33,0.81c0.1,0.4,0.52,0.18,0.54,0.17c0.02-0.01,0.03,0,0.02,0.02c-0.16,0.42-0.59,0.26-0.59,0.26
		c-0.22,0.16,0.05,0.3,0.25,0.36c0.03,0.01,0.03,0.03,0,0.04c-0.15,0.05-0.47,0.15-0.62-0.11c-0.11,0.28-0.35,0.27-0.44,0.27
		c-0.16,0-0.27,0.17-0.23,0.39c0,0.02-0.01,0.03-0.03,0.01c-0.39-0.26-0.17-0.56-0.01-0.64c-0.03-0.02-0.3-0.13-0.41,0.19
		c-0.01,0.02-0.02,0.03-0.03,0c-0.17-0.45,0.2-0.59,0.47-0.47c-0.02-0.06-0.16-0.29-0.51-0.21c-0.02,0-0.03,0-0.02-0.02
		c0.06-0.14,0.23-0.34,0.55-0.14c0.16,0.1,0.45-0.05,0.47-0.06c-0.57-1.13-1.67-0.18-1.92-1.07c0-0.02-0.03-0.03-0.04,0.01
		c-0.06,0.19-0.54,0.2-0.63-0.17c-0.01-0.03,0-0.03,0.02-0.01c0.07,0.07,0.22,0.14,0.42-0.15c0.13-0.19,0.15-0.44,0.15-0.62
		c0-0.69-0.69-1.84-1.76-1.84c-0.68,0-1.41,0.26-1.95,0.66l0.5,0.12c-0.05,0.51-0.54,0.81-0.99,0.68l0.08-0.58
		c-0.08,0.02-0.28,0.09-0.38,0.24c-0.01,0.01-0.02,0.01-0.03,0c-0.09-0.33,0.18-0.5,0.27-0.54c0.01-0.01,0.01-0.01-0.01-0.01
		c-0.24-0.01-0.38,0.17-0.42,0.23c-0.01,0.01-0.02,0.01-0.02,0C18.11,51.25,18.07,51.08,18.19,50.96z M19.68,54.89
		c-0.19,0.24-0.36,0.01-0.62,0.01c-0.24,0-0.28,0.2-0.28,0.28c0,0.01-0.01,0.02-0.02,0c-0.27-0.37,0.03-0.57,0.21-0.6
		c-0.03-0.03-0.29-0.2-0.46,0.04c-0.01,0.02-0.03,0.01-0.03-0.01c-0.01-0.46,0.35-0.49,0.59-0.29c0.04-0.17-0.07-0.29-0.26-0.3
		c-0.02,0-0.03-0.02-0.02-0.03c0.08-0.09,0.16-0.13,0.24-0.13c0.25,0,0.29,0.32,0.45,0.32c0.25,0,0.6-0.34,0.64-0.37
		c-0.01-0.02-0.25-0.66-0.2-1.05c0-0.02-0.01-0.02-0.02-0.01c-0.12,0.07-0.43,0.07-0.43-0.31c0-0.03,0.01-0.03,0.03-0.01
		c0.13,0.19,0.35-0.02,0.46-0.15c0.12-0.13,0.75-1.04,1.58-1.04c0.18,0,0.42,0.1,0.61,0.23c-0.29,0.35,0,0.69,0.21,0.65
		c0.03,0,0.03,0.02,0.01,0.03c-1.11,0.42-1.6,0.58-1.6,1.51c0,0.48,0.17,0.75,0.45,0.69c0.02-0.01,0.03,0,0.01,0.02
		c-0.1,0.12-0.22,0.16-0.32,0.16c-0.23,0-0.27-0.13-0.39-0.13c-0.13,0-0.54,0.24-0.54,0.45c0,0.08,0.05,0.18,0.19,0.28
		c0.01,0.01,0,0.01,0,0.02C20.08,55.18,19.76,55.2,19.68,54.89z M22.6,45.88c-0.35-0.02-0.57,0.06-0.56,0.17
		C22.21,46.23,22.43,46.21,22.6,45.88z M21.32,46.74c0.24-0.06,0.51-0.03,0.54-0.02c0.04,0.01,0.04,0.07-0.01,0.08
		c-0.51,0.07-0.53,0.3-0.86,0.3c-0.21,0-0.45-0.22-0.36-0.53c0.01-0.04,0.04-0.04,0.05,0C20.72,46.69,20.92,46.84,21.32,46.74z
		 M14.7,58.04c0.34,0.43,0.66,0.03,1.1,0.03c0.22,0,0.48,0.07,0.53,0.51c0,0.02,0.02,0.03,0.04,0c0.48-0.66-0.07-1.03-0.38-1.08
		c0.07-0.06,0.54-0.35,0.84,0.08c0.02,0.02,0.05,0.02,0.05-0.02c0-0.83-0.63-0.89-1.08-0.53c-0.09-0.33,0.16-0.54,0.48-0.54
		c0.04,0,0.05-0.03,0.03-0.05c-0.56-0.6-0.98,0.15-1.07,0.27c-0.22,0.3-1.02-0.26-1.34-0.59c0,0,0.71-0.74,0.71-1.42
		c0-0.04,0-0.1,0-0.12c0-0.02,0.01-0.03,0.03-0.02c0.07,0.04,0.17,0.07,0.26,0.07c0.16,0,0.47-0.05,0.47-0.62
		c0-0.04-0.02-0.04-0.04-0.02c-0.08,0.12-0.18,0.15-0.25,0.15c-0.57,0-1.76-1.9-3.16-1.9c-0.37,0-1.06,0.26-1.41,0.64
		c0.17,0.1,0.2,0.31,0.18,0.46c-0.03,0.24-0.22,0.36-0.41,0.42c-0.03,0.01-0.04,0.03,0,0.05c0.71,0.27,2,0.76,2.29,1.01
		c0.35,0.3,0.28,0.87,0.08,1.65c-0.19,0.75-0.61,0.65-0.76,0.62c-0.02,0-0.03,0.01-0.02,0.03c0.18,0.23,0.41,0.31,0.6,0.31
		c0.37,0,0.51-0.23,0.7-0.23c0.32,0,0.99,0.46,0.99,0.81c0,0.2-0.15,0.37-0.35,0.5c-0.01,0.01-0.01,0.02,0.01,0.03
		C13.95,58.55,14.58,58.6,14.7,58.04z M30.2,58.53c0.02,0,0.02-0.02,0.01-0.03c-0.2-0.13-0.35-0.31-0.35-0.5
		c0-0.35,0.67-0.81,0.99-0.81c0.19,0,0.33,0.23,0.7,0.23c0.19,0,0.41-0.08,0.6-0.31c0.01-0.02,0.01-0.03-0.02-0.03
		c-0.15,0.02-0.57,0.13-0.76-0.62c-0.2-0.78-0.27-1.35,0.08-1.65c0.29-0.25,1.58-0.74,2.29-1.01c0.04-0.02,0.03-0.04,0-0.05
		c-0.2-0.05-0.39-0.17-0.41-0.42c-0.02-0.15,0.01-0.36,0.18-0.46c-0.35-0.38-1.04-0.64-1.41-0.64c-1.4,0-2.59,1.9-3.16,1.9
		c-0.07,0-0.16-0.03-0.25-0.15c-0.02-0.03-0.04-0.03-0.04,0.02c0,0.57,0.3,0.62,0.47,0.62c0.09,0,0.19-0.03,0.26-0.07
		c0.02-0.01,0.03,0,0.03,0.02c0,0.02,0,0.08,0,0.12c0,0.68,0.71,1.42,0.71,1.42c-0.32,0.33-1.12,0.89-1.34,0.59
		c-0.1-0.12-0.51-0.87-1.07-0.27c-0.02,0.02-0.01,0.05,0.03,0.05c0.31,0,0.56,0.21,0.48,0.54c-0.45-0.36-1.08-0.3-1.08,0.53
		c0,0.03,0.03,0.04,0.05,0.02c0.3-0.43,0.77-0.14,0.84-0.08c-0.32,0.05-0.87,0.42-0.38,1.08c0.02,0.03,0.04,0.02,0.04,0
		c0.05-0.43,0.31-0.51,0.53-0.51c0.44,0,0.77,0.41,1.1-0.03C29.42,58.6,30.05,58.55,30.2,58.53z M18.85,47.56
		c-0.04,0.06-0.19,0-0.25-0.03c-0.01-0.01-0.02,0-0.01,0.01c0.04,0.08,0.18,0.32,0.39,0.32c0.1,0,0.23-0.06,0.27-0.12
		c0,0,0.83,0.27,1.23,0.38c-0.16,0.21-0.26,0.47-0.28,0.74c-0.33-0.2-1.65-0.91-1.65-0.91l-0.41,0.56
		c-0.07,0.09-0.39-0.15-0.33-0.24l0.31-0.43c-0.1-0.11-0.35-0.04-0.42-0.02c-0.01,0-0.02,0-0.01-0.02c0.04-0.08,0.19-0.34,0.58-0.23
		c0-0.24-0.35-0.16-0.44-0.14c-0.01,0-0.01,0,0-0.01c0.1-0.1,0.38-0.33,0.7-0.14l0.14-0.19l-0.28-0.3l0.18-0.24l0.2,0.27l1.52-2.08
		c0.04-0.05,0.34-0.14,0.45-0.16c0.01,0.12,0.02,0.43-0.01,0.48l-1.5,2.1l0.32,0.1l-0.17,0.24l-0.37-0.17L18.85,47.56z M24.18,47.22
		c0,0.19,0.12,0.47,0.37,0.39c0.01-0.01,0.02,0,0.02,0.01c-0.04,0.21-0.42,0.41-0.59,0.16c-0.15,0.33-0.12,0.63,0.21,0.81
		c0.02,0.01,0.02,0.03,0,0.05c-0.2,0.14-0.51,0.11-0.65-0.17c-0.27,0.21-0.23,0.64-0.07,0.79c0,0-0.76,0.45-1.44,0.13
		c-0.45-0.22-0.82-0.5-1.41-0.45c0.08-0.82,0.49-1.04,1.25-1.16c0.6-0.1,0.68-0.38,0.59-0.59c-0.21-0.05-0.58,0.13-0.58,0.13
		c-0.07-0.11,0.03-0.23,0.03-0.23c-0.04-0.05-0.06-0.2-0.06-0.2c0.42,0,0.5-0.09,0.5-0.09c0.08-0.44-0.37-0.49-0.71-0.25
		c-0.16-0.14-0.13-0.33-0.13-0.33c-0.05-0.02-0.08-0.1-0.08-0.13c0-0.1,0.5-0.39,0.63-0.42c0.03-0.15,0.21-0.35,0.75-0.3
		c0.06-0.14-0.04-0.66-0.1-0.79c-0.02-0.04,0.01-0.07,0.06-0.04c0.19,0.12,0.37,0.55,0.5,0.56c0,0,0.6-0.31,0.63-0.3
		c0.03,0.02,0.11,0.68,0.11,0.68c0.08,0.1,0.54,0,0.74,0.09c0.05,0.02,0.05,0.06,0,0.07c-0.15,0.03-0.63,0.23-0.71,0.37
		C24.31,46.44,24.18,47.05,24.18,47.22z"/>
	<path d="M60.65,46.08c-0.17,0.06-0.37,0.08-0.59,0.08c-0.15,0-0.29-0.01-0.41-0.04c-0.12-0.04-0.25-0.08-0.36-0.17
		c-0.12-0.08-0.23-0.18-0.34-0.3c-0.11-0.12-0.23-0.28-0.36-0.47l-1.81-2.75h-0.65v2.9l0.87,0.22v0.3
		c-0.23,0.07-0.47,0.12-0.73,0.17c-0.25,0.04-0.54,0.07-0.84,0.07c-0.23,0-0.47-0.01-0.67-0.03c-0.22-0.03-0.41-0.05-0.62-0.11
		v-0.26c0.26-0.08,0.47-0.19,0.6-0.34c0.12-0.15,0.19-0.38,0.19-0.7V37.9l-0.87-0.27v-0.3c0.22-0.04,0.43-0.07,0.63-0.1
		c0.22-0.03,0.43-0.04,0.65-0.07c0.23-0.01,0.45-0.03,0.7-0.03c0.23-0.01,0.48-0.01,0.76-0.01c1.04,0,1.81,0.19,2.31,0.59
		c0.51,0.4,0.76,0.97,0.76,1.73c0,0.34-0.04,0.65-0.14,0.94c-0.1,0.27-0.22,0.52-0.4,0.74c-0.17,0.22-0.37,0.41-0.62,0.56
		c-0.25,0.17-0.52,0.29-0.82,0.38l1.94,2.6c0.17,0.22,0.36,0.41,0.58,0.58c0.22,0.15,0.45,0.28,0.7,0.36v0.26
		C60.98,45.95,60.83,46.02,60.65,46.08z M58.11,38.35c-0.33-0.32-0.8-0.47-1.39-0.47c-0.1,0-0.19,0.01-0.3,0.01
		c-0.1,0.01-0.21,0.03-0.29,0.04v3.85h0.54c0.26,0,0.52-0.04,0.76-0.14c0.23-0.08,0.44-0.22,0.62-0.4c0.18-0.17,0.32-0.4,0.43-0.66
		c0.1-0.26,0.15-0.58,0.15-0.93C58.61,39.09,58.45,38.65,58.11,38.35z"/>
	<path d="M63.91,45.95c-0.12,0.03-0.23,0.06-0.37,0.07c-0.12,0.01-0.26,0.03-0.4,0.04c-0.15,0-0.3,0.01-0.48,0.01
		c-0.15,0-0.33-0.01-0.51-0.03c-0.19-0.01-0.37-0.04-0.52-0.1v-0.23c0.1-0.03,0.18-0.07,0.27-0.12c0.08-0.05,0.17-0.11,0.23-0.18
		c0.07-0.05,0.12-0.12,0.17-0.21c0.04-0.07,0.05-0.15,0.05-0.23v-4.64l-0.88-0.37v-0.29c0.32-0.1,0.62-0.15,0.91-0.19
		c0.29-0.06,0.54-0.07,0.73-0.07h0.44l-0.07,0.74v5.22l0.77,0.21v0.26C64.13,45.89,64.02,45.93,63.91,45.95z M63.65,37.64
		c-0.04,0.1-0.1,0.19-0.16,0.26c-0.07,0.08-0.15,0.14-0.25,0.18c-0.1,0.05-0.19,0.07-0.3,0.07c-0.1,0-0.19-0.01-0.29-0.05
		c-0.08-0.04-0.17-0.1-0.23-0.17c-0.06-0.07-0.11-0.15-0.15-0.25c-0.04-0.1-0.06-0.21-0.06-0.32c0-0.11,0.01-0.21,0.06-0.3
		c0.03-0.1,0.08-0.18,0.15-0.26c0.07-0.08,0.15-0.14,0.25-0.18c0.1-0.04,0.21-0.07,0.33-0.07c0.1,0,0.19,0.01,0.28,0.05
		c0.08,0.03,0.16,0.08,0.23,0.15c0.07,0.05,0.11,0.14,0.15,0.23c0.04,0.08,0.06,0.19,0.06,0.3C63.71,37.42,63.69,37.53,63.65,37.64z
		"/>
	<path d="M67.1,40.19v6.17c0,0.56-0.04,1.03-0.12,1.42c-0.08,0.37-0.19,0.67-0.33,0.91c-0.14,0.23-0.3,0.4-0.49,0.5
		c-0.19,0.1-0.4,0.14-0.6,0.14c-0.16,0-0.3-0.03-0.44-0.08c-0.14-0.05-0.25-0.14-0.34-0.25v-0.22c0.15,0,0.3-0.04,0.45-0.12
		c0.14-0.1,0.27-0.22,0.38-0.4c0.11-0.18,0.21-0.4,0.26-0.66c0.07-0.26,0.11-0.56,0.11-0.91v-6.33l-0.88-0.37v-0.29
		c0.32-0.1,0.62-0.15,0.91-0.19c0.29-0.06,0.54-0.07,0.73-0.07h0.45L67.1,40.19z M67.26,37.64c-0.04,0.1-0.08,0.19-0.15,0.26
		c-0.08,0.08-0.15,0.14-0.25,0.18c-0.1,0.05-0.19,0.07-0.3,0.07c-0.11,0-0.21-0.01-0.29-0.05c-0.1-0.04-0.17-0.1-0.23-0.17
		c-0.07-0.07-0.12-0.15-0.15-0.25c-0.04-0.1-0.05-0.21-0.05-0.32c0-0.11,0.01-0.21,0.04-0.3c0.04-0.1,0.1-0.18,0.17-0.26
		c0.07-0.08,0.15-0.14,0.25-0.18c0.1-0.04,0.21-0.07,0.33-0.07c0.08,0,0.18,0.01,0.26,0.05c0.1,0.03,0.17,0.08,0.23,0.15
		c0.07,0.05,0.11,0.14,0.15,0.23c0.04,0.08,0.05,0.19,0.05,0.3C67.31,37.42,67.3,37.53,67.26,37.64z"/>
	<path d="M74.29,46.01c-0.17,0.04-0.34,0.07-0.55,0.07c-0.19,0-0.37-0.04-0.54-0.12c-0.17-0.08-0.3-0.22-0.44-0.4l-2.24-2.95v2.78
		l0.71,0.22v0.26c-0.12,0.04-0.25,0.08-0.37,0.1c-0.11,0.03-0.23,0.06-0.36,0.07c-0.12,0.03-0.25,0.04-0.38,0.04
		c-0.12,0.01-0.27,0.01-0.44,0.01c-0.15,0-0.33-0.01-0.51-0.03c-0.19-0.01-0.37-0.04-0.52-0.1v-0.23c0.1-0.03,0.19-0.07,0.27-0.12
		c0.1-0.05,0.17-0.11,0.23-0.18c0.07-0.05,0.12-0.12,0.18-0.21c0.04-0.07,0.05-0.15,0.05-0.23v-7.97l-0.91-0.37v-0.3
		c0.32-0.1,0.63-0.15,0.92-0.19c0.29-0.03,0.54-0.05,0.73-0.05h0.47l-0.08,0.77v5.49l0.76-0.66c0.18-0.16,0.37-0.33,0.54-0.52
		c0.17-0.19,0.32-0.38,0.45-0.58c0.12-0.19,0.23-0.4,0.3-0.58c0.08-0.19,0.12-0.37,0.12-0.52c0.12-0.04,0.25-0.07,0.36-0.08
		c0.11-0.01,0.23-0.03,0.37-0.03c0.11,0,0.21,0.01,0.29,0.03c0.08,0.03,0.18,0.06,0.26,0.1c0,0.15-0.06,0.32-0.12,0.49
		c-0.08,0.19-0.19,0.4-0.34,0.61c-0.15,0.21-0.36,0.43-0.58,0.65c-0.23,0.22-0.51,0.45-0.82,0.67l-0.48,0.34l2.12,2.57
		c0.19,0.23,0.37,0.4,0.55,0.51c0.16,0.1,0.33,0.15,0.47,0.15v0.29C74.61,45.89,74.44,45.97,74.29,46.01z"/>
	<path d="M79.36,44.91c-0.12,0.23-0.3,0.45-0.52,0.63c-0.22,0.19-0.49,0.34-0.81,0.45c-0.3,0.11-0.66,0.16-1.04,0.16
		c-0.6,0-1.04-0.1-1.32-0.29c-0.29-0.18-0.43-0.47-0.43-0.84c0-0.1,0.01-0.19,0.03-0.3c0.03-0.1,0.05-0.18,0.1-0.26
		c0.3,0.29,0.62,0.51,0.92,0.65c0.32,0.15,0.65,0.22,1.02,0.22c0.38,0,0.67-0.08,0.88-0.25c0.19-0.16,0.29-0.36,0.29-0.6
		c0-0.12-0.01-0.23-0.05-0.33c-0.04-0.1-0.11-0.19-0.19-0.29c-0.1-0.1-0.22-0.18-0.37-0.28c-0.14-0.08-0.33-0.18-0.56-0.28
		l-0.69-0.29c-0.4-0.16-0.7-0.4-0.92-0.69c-0.21-0.29-0.32-0.62-0.32-1.02c0-0.28,0.05-0.54,0.16-0.77
		c0.12-0.25,0.29-0.47,0.49-0.64c0.21-0.18,0.45-0.33,0.76-0.44c0.29-0.11,0.62-0.17,0.98-0.17c0.27,0,0.51,0.03,0.7,0.07
		c0.19,0.03,0.36,0.1,0.48,0.16c0.12,0.07,0.22,0.17,0.28,0.26c0.05,0.11,0.08,0.23,0.08,0.36c0,0.11,0,0.21-0.01,0.29
		c-0.01,0.1-0.04,0.19-0.05,0.29c-0.22-0.15-0.47-0.28-0.76-0.37c-0.27-0.1-0.55-0.15-0.81-0.15c-0.22,0-0.41,0.03-0.58,0.07
		c-0.16,0.04-0.29,0.11-0.4,0.18c-0.11,0.08-0.19,0.18-0.25,0.28c-0.04,0.11-0.07,0.22-0.07,0.33c0,0.12,0.01,0.23,0.04,0.33
		c0.04,0.11,0.1,0.19,0.18,0.28c0.08,0.1,0.19,0.18,0.33,0.25c0.14,0.08,0.32,0.15,0.52,0.23l0.74,0.29
		c0.25,0.1,0.45,0.21,0.63,0.32c0.16,0.11,0.32,0.23,0.43,0.37c0.1,0.15,0.18,0.3,0.23,0.47c0.04,0.17,0.07,0.36,0.07,0.55
		C79.54,44.4,79.48,44.66,79.36,44.91z"/>
	<path d="M85.66,40.06l-2.43,6.06l-0.48,0.03l-2.32-6l-0.56-0.4v-0.33h2.61v0.33l-0.78,0.33l1.5,4.35h0.01l1.52-4.31l-0.8-0.37
		v-0.33h2.13v0.33L85.66,40.06z"/>
	<path d="M91.22,45.85c-0.16,0.14-0.34,0.25-0.52,0.33c-0.14-0.08-0.25-0.18-0.36-0.29c-0.1-0.12-0.19-0.25-0.27-0.38
		c-0.1,0.1-0.21,0.18-0.34,0.26c-0.15,0.08-0.29,0.15-0.45,0.21c-0.16,0.07-0.33,0.11-0.52,0.14c-0.18,0.04-0.36,0.05-0.54,0.05
		c-0.26,0-0.49-0.04-0.7-0.11c-0.22-0.08-0.4-0.18-0.55-0.32c-0.16-0.14-0.27-0.3-0.37-0.49c-0.08-0.18-0.12-0.38-0.12-0.6
		c0-0.3,0.08-0.59,0.25-0.85c0.15-0.27,0.38-0.51,0.7-0.71c0.3-0.21,0.67-0.37,1.11-0.49c0.44-0.11,0.95-0.18,1.51-0.18v-0.37
		c0-0.37-0.03-0.67-0.07-0.91c-0.05-0.23-0.12-0.41-0.22-0.55c-0.1-0.12-0.22-0.22-0.38-0.28c-0.15-0.04-0.33-0.07-0.55-0.07
		c-0.38,0-0.74,0.08-1.1,0.23c-0.34,0.15-0.67,0.37-0.96,0.66c-0.03-0.12-0.04-0.26-0.04-0.41c0-0.22,0.04-0.41,0.12-0.59
		c0.08-0.17,0.22-0.32,0.4-0.43c0.18-0.12,0.41-0.22,0.7-0.28c0.29-0.07,0.63-0.1,1.03-0.1c0.34,0,0.66,0.04,0.93,0.12
		c0.27,0.1,0.49,0.21,0.69,0.37c0.19,0.17,0.34,0.36,0.44,0.58c0.1,0.22,0.15,0.48,0.15,0.77c0,0.07,0,0.16-0.01,0.29
		c0,0.11,0,0.23-0.01,0.37c0,0.12-0.01,0.26-0.01,0.38c0,0.12-0.01,0.25-0.01,0.34l-0.04,2.23c0.05,0.12,0.12,0.25,0.22,0.37
		c0.1,0.12,0.21,0.23,0.33,0.33C91.54,45.6,91.4,45.72,91.22,45.85z M90.04,43.04c-0.38,0-0.73,0.04-1.03,0.11
		c-0.3,0.08-0.55,0.18-0.74,0.3c-0.21,0.12-0.36,0.28-0.47,0.44c-0.1,0.18-0.15,0.34-0.15,0.54c0,0.27,0.1,0.49,0.27,0.66
		c0.18,0.17,0.44,0.25,0.8,0.25c0.11,0,0.22-0.01,0.33-0.03c0.12-0.03,0.25-0.05,0.36-0.08c0.12-0.03,0.23-0.07,0.34-0.12
		c0.11-0.04,0.21-0.08,0.29-0.14V43.04z"/>
	<path d="M96.73,44.91c-0.12,0.23-0.3,0.45-0.52,0.63c-0.22,0.19-0.49,0.34-0.81,0.45c-0.3,0.11-0.66,0.16-1.04,0.16
		c-0.6,0-1.04-0.1-1.32-0.29c-0.29-0.18-0.43-0.47-0.43-0.84c0-0.1,0.01-0.19,0.03-0.3c0.03-0.1,0.05-0.18,0.1-0.26
		c0.3,0.29,0.62,0.51,0.92,0.65c0.32,0.15,0.65,0.22,1.02,0.22c0.38,0,0.67-0.08,0.88-0.25c0.19-0.16,0.29-0.36,0.29-0.6
		c0-0.12-0.01-0.23-0.05-0.33c-0.04-0.1-0.11-0.19-0.19-0.29c-0.1-0.1-0.22-0.18-0.37-0.28c-0.14-0.08-0.33-0.18-0.56-0.28
		l-0.69-0.29c-0.4-0.16-0.7-0.4-0.92-0.69c-0.21-0.29-0.32-0.62-0.32-1.02c0-0.28,0.05-0.54,0.17-0.77
		c0.12-0.25,0.29-0.47,0.49-0.64c0.21-0.18,0.45-0.33,0.76-0.44c0.29-0.11,0.62-0.17,0.98-0.17c0.27,0,0.51,0.03,0.7,0.07
		c0.19,0.03,0.36,0.1,0.48,0.16c0.12,0.07,0.22,0.17,0.28,0.26c0.05,0.11,0.08,0.23,0.08,0.36c0,0.11,0,0.21-0.01,0.29
		c-0.01,0.1-0.04,0.19-0.05,0.29c-0.22-0.15-0.47-0.28-0.76-0.37c-0.27-0.1-0.55-0.15-0.81-0.15c-0.22,0-0.41,0.03-0.58,0.07
		c-0.16,0.04-0.29,0.11-0.4,0.18c-0.11,0.08-0.19,0.18-0.25,0.28c-0.04,0.11-0.07,0.22-0.07,0.33c0,0.12,0.01,0.23,0.04,0.33
		c0.04,0.11,0.1,0.19,0.18,0.28c0.08,0.1,0.19,0.18,0.33,0.25c0.14,0.08,0.32,0.15,0.52,0.23l0.74,0.29
		c0.25,0.1,0.45,0.21,0.63,0.32c0.17,0.11,0.32,0.23,0.43,0.37c0.1,0.15,0.18,0.3,0.23,0.47c0.04,0.17,0.07,0.36,0.07,0.55
		C96.91,44.4,96.85,44.66,96.73,44.91z"/>
	<path d="M100.1,46.13c-0.55,0-0.96-0.15-1.24-0.45c-0.26-0.3-0.4-0.78-0.4-1.46c0-0.33,0-0.67,0.01-1.02
		c0.01-0.36,0.01-0.69,0.03-1l0.04-1.83h-0.76v-0.45l1.48-1.47l0.45-0.05l-0.06,1.24h1.81l-0.1,0.74h-1.76l-0.03,1.73
		c0,0.29-0.01,0.56-0.01,0.84c0,0.26,0,0.51,0,0.77c0,0.28,0.01,0.51,0.05,0.7c0.04,0.19,0.1,0.34,0.18,0.47
		c0.07,0.11,0.15,0.19,0.26,0.25c0.1,0.05,0.22,0.08,0.34,0.08c0.21,0,0.38-0.03,0.56-0.1c0.17-0.07,0.32-0.15,0.45-0.26l0.14,0.05
		C101.52,45.72,101.03,46.13,100.1,46.13z"/>
	<path d="M108.19,40.31c-0.22-0.05-0.45-0.08-0.7-0.11c-0.25-0.03-0.49-0.04-0.77-0.04v0.01c0.11,0.08,0.22,0.19,0.32,0.3
		c0.1,0.11,0.18,0.23,0.25,0.36c0.07,0.14,0.12,0.28,0.17,0.41c0.03,0.15,0.05,0.29,0.05,0.43c0,0.4-0.08,0.75-0.23,1.09
		c-0.15,0.33-0.36,0.62-0.6,0.85c-0.26,0.23-0.55,0.41-0.89,0.55c-0.33,0.12-0.69,0.19-1.06,0.19c-0.15,0-0.3-0.01-0.45-0.04
		c-0.15-0.03-0.27-0.07-0.4-0.12c-0.05,0.03-0.11,0.07-0.15,0.12c-0.06,0.04-0.1,0.1-0.15,0.16c-0.04,0.05-0.07,0.11-0.1,0.18
		c-0.03,0.07-0.04,0.12-0.04,0.19c0,0.21,0.08,0.37,0.23,0.47c0.17,0.11,0.37,0.16,0.65,0.16l1.92-0.01c0.58,0,1.03,0.11,1.33,0.37
		c0.32,0.26,0.47,0.66,0.47,1.17c0,0.33-0.08,0.63-0.26,0.93c-0.17,0.29-0.4,0.54-0.7,0.76c-0.3,0.22-0.65,0.4-1.06,0.52
		c-0.41,0.12-0.85,0.19-1.33,0.19c-0.44,0-0.81-0.04-1.14-0.12c-0.33-0.08-0.6-0.19-0.82-0.34c-0.22-0.14-0.38-0.32-0.49-0.51
		c-0.11-0.19-0.16-0.41-0.16-0.63c0-0.18,0.03-0.36,0.1-0.52c0.07-0.15,0.16-0.3,0.27-0.44c0.12-0.12,0.26-0.25,0.41-0.34
		c0.16-0.1,0.33-0.17,0.52-0.22v-0.01c-0.25-0.1-0.45-0.22-0.59-0.41c-0.15-0.18-0.22-0.4-0.22-0.66c0-0.14,0.03-0.26,0.08-0.38
		c0.04-0.14,0.11-0.25,0.21-0.36c0.08-0.11,0.19-0.22,0.3-0.3c0.11-0.08,0.23-0.15,0.37-0.19v-0.01c-0.16-0.07-0.32-0.15-0.45-0.27
		c-0.15-0.11-0.29-0.25-0.4-0.41c-0.11-0.17-0.21-0.36-0.27-0.56c-0.07-0.21-0.11-0.42-0.11-0.66c0-0.38,0.07-0.74,0.22-1.07
		c0.14-0.33,0.33-0.62,0.58-0.87c0.25-0.25,0.55-0.44,0.88-0.58c0.33-0.14,0.69-0.21,1.06-0.21c0.14,0,0.29,0.01,0.44,0.04
		c0.15,0.03,0.29,0.07,0.43,0.11c0.14,0.04,0.26,0.08,0.37,0.14c0.11,0.05,0.19,0.11,0.25,0.16c0.07-0.05,0.14-0.11,0.23-0.16
		c0.1-0.06,0.19-0.1,0.3-0.14c0.11-0.04,0.22-0.07,0.33-0.1c0.12-0.03,0.23-0.04,0.34-0.04c0.11,0,0.23,0.01,0.33,0.03
		c0.11,0.01,0.19,0.03,0.26,0.05L108.19,40.31z M106.76,46.68c-0.18-0.15-0.43-0.22-0.76-0.22h-2.21c-0.1,0.04-0.19,0.11-0.27,0.18
		c-0.08,0.08-0.16,0.16-0.22,0.26c-0.07,0.1-0.11,0.21-0.15,0.31c-0.04,0.11-0.06,0.23-0.06,0.34c0,0.15,0.04,0.27,0.11,0.4
		c0.07,0.14,0.19,0.25,0.33,0.33c0.15,0.1,0.33,0.18,0.55,0.23c0.22,0.05,0.48,0.08,0.77,0.08c0.33,0,0.62-0.04,0.89-0.11
		c0.26-0.08,0.49-0.18,0.69-0.29c0.19-0.12,0.33-0.26,0.44-0.42c0.1-0.15,0.15-0.32,0.15-0.48
		C107.02,47.04,106.94,46.83,106.76,46.68z M106.18,40.95c-0.07-0.21-0.18-0.38-0.3-0.54c-0.12-0.14-0.28-0.23-0.44-0.31
		c-0.17-0.07-0.34-0.1-0.52-0.1c-0.19,0-0.38,0.04-0.56,0.14c-0.17,0.08-0.32,0.22-0.45,0.38c-0.12,0.16-0.23,0.37-0.32,0.61
		c-0.07,0.25-0.11,0.51-0.11,0.81c0,0.29,0.04,0.55,0.11,0.76c0.07,0.22,0.16,0.4,0.29,0.54c0.12,0.14,0.28,0.25,0.43,0.32
		c0.17,0.07,0.33,0.11,0.49,0.11c0.21,0,0.41-0.04,0.59-0.11c0.18-0.08,0.33-0.19,0.47-0.36c0.14-0.16,0.25-0.37,0.32-0.62
		c0.08-0.25,0.12-0.54,0.12-0.87C106.29,41.42,106.25,41.17,106.18,40.95z"/>
	<path d="M114.69,44.02c-0.18,0.45-0.41,0.84-0.71,1.17c-0.3,0.32-0.65,0.56-1.03,0.73c-0.4,0.18-0.8,0.26-1.19,0.26
		c-0.41,0-0.81-0.07-1.17-0.22c-0.37-0.14-0.69-0.34-0.96-0.62c-0.26-0.26-0.48-0.6-0.65-0.99c-0.15-0.4-0.23-0.84-0.23-1.35
		c0-0.56,0.1-1.07,0.26-1.53c0.18-0.45,0.43-0.85,0.71-1.17c0.3-0.31,0.65-0.56,1.03-0.74c0.38-0.18,0.8-0.26,1.22-0.26
		c0.43,0,0.81,0.08,1.18,0.23c0.37,0.15,0.69,0.36,0.95,0.65c0.27,0.28,0.48,0.61,0.63,0.99c0.16,0.4,0.23,0.83,0.23,1.31
		C114.97,43.04,114.89,43.56,114.69,44.02z M113.57,41.53c-0.1-0.3-0.23-0.56-0.4-0.78c-0.18-0.21-0.37-0.37-0.59-0.48
		c-0.22-0.11-0.45-0.16-0.7-0.16c-0.23,0-0.47,0.07-0.69,0.18c-0.23,0.12-0.44,0.29-0.6,0.52c-0.18,0.23-0.33,0.52-0.43,0.87
		c-0.11,0.34-0.16,0.74-0.16,1.2c0,0.41,0.05,0.78,0.15,1.08c0.1,0.32,0.23,0.58,0.4,0.8c0.18,0.21,0.37,0.37,0.59,0.48
		c0.22,0.1,0.45,0.15,0.7,0.15c0.23,0,0.45-0.06,0.69-0.17c0.22-0.11,0.43-0.29,0.6-0.52c0.18-0.22,0.32-0.51,0.43-0.87
		c0.11-0.34,0.16-0.76,0.16-1.22C113.72,42.2,113.66,41.85,113.57,41.53z"/>
	<path d="M121.24,42.77h-4.05c0,0.38,0.05,0.73,0.15,1.03c0.11,0.3,0.26,0.55,0.44,0.76c0.18,0.21,0.4,0.37,0.65,0.48
		c0.25,0.11,0.51,0.16,0.8,0.16c0.17,0,0.33-0.01,0.51-0.04c0.18-0.03,0.34-0.07,0.51-0.12c0.18-0.04,0.33-0.11,0.49-0.18
		c0.15-0.08,0.3-0.17,0.43-0.25c0.01,0.03,0.03,0.08,0.04,0.15c0.01,0.07,0.01,0.14,0.01,0.21c0,0.17-0.06,0.32-0.16,0.45
		c-0.11,0.14-0.26,0.27-0.47,0.38c-0.21,0.11-0.45,0.19-0.74,0.26c-0.3,0.07-0.63,0.1-0.99,0.1c-0.4,0-0.76-0.07-1.1-0.22
		c-0.36-0.15-0.65-0.36-0.91-0.63c-0.26-0.28-0.47-0.61-0.62-0.99c-0.14-0.38-0.22-0.82-0.22-1.3c0-0.59,0.08-1.13,0.25-1.6
		c0.16-0.45,0.38-0.84,0.66-1.15c0.26-0.3,0.56-0.55,0.91-0.7c0.34-0.16,0.7-0.25,1.06-0.25c0.37,0,0.7,0.06,1,0.18
		c0.29,0.12,0.54,0.29,0.74,0.51c0.21,0.23,0.36,0.5,0.47,0.81c0.11,0.33,0.16,0.67,0.16,1.07c0,0.14,0,0.26,0,0.41
		C121.26,42.44,121.26,42.6,121.24,42.77z M120.05,41.17c-0.07-0.25-0.17-0.45-0.29-0.62c-0.12-0.16-0.26-0.29-0.44-0.37
		c-0.16-0.08-0.36-0.12-0.55-0.12c-0.19,0-0.37,0.06-0.56,0.17c-0.19,0.1-0.36,0.25-0.49,0.43c-0.15,0.18-0.26,0.4-0.36,0.63
		c-0.1,0.25-0.14,0.49-0.14,0.77h2.94C120.16,41.71,120.12,41.42,120.05,41.17z"/>
	<path d="M127.72,45.87c-0.15,0.1-0.33,0.21-0.52,0.3c-0.14-0.11-0.26-0.23-0.38-0.38c-0.11-0.15-0.21-0.3-0.27-0.44
		c-0.11,0.11-0.23,0.22-0.38,0.32c-0.14,0.1-0.29,0.18-0.44,0.25c-0.17,0.07-0.32,0.12-0.48,0.16c-0.16,0.04-0.32,0.06-0.45,0.06
		c-0.34,0-0.67-0.07-0.98-0.21c-0.3-0.14-0.56-0.34-0.8-0.59c-0.22-0.26-0.4-0.58-0.54-0.95c-0.12-0.37-0.19-0.78-0.19-1.24
		c0-0.62,0.08-1.17,0.26-1.63c0.18-0.48,0.41-0.88,0.71-1.2c0.29-0.33,0.65-0.58,1.04-0.74c0.4-0.17,0.81-0.25,1.26-0.25
		c0.17,0,0.33,0.01,0.51,0.03c0.18,0.01,0.33,0.04,0.44,0.07v-2.42l-0.93-0.37v-0.3c0.32-0.1,0.63-0.15,0.93-0.19
		c0.32-0.03,0.56-0.05,0.77-0.05h0.44l-0.08,0.77v7.87c0.05,0.14,0.12,0.28,0.21,0.41c0.08,0.14,0.18,0.27,0.32,0.38
		C128.03,45.65,127.88,45.76,127.72,45.87z M126.53,40.26c-0.11-0.04-0.26-0.07-0.45-0.11c-0.18-0.03-0.36-0.04-0.55-0.04
		c-0.29,0-0.56,0.05-0.81,0.18c-0.25,0.11-0.47,0.29-0.66,0.52c-0.18,0.23-0.32,0.52-0.43,0.88c-0.1,0.36-0.15,0.77-0.15,1.25
		c0,0.37,0.04,0.7,0.14,0.99c0.1,0.29,0.22,0.54,0.37,0.73c0.15,0.19,0.32,0.34,0.52,0.44c0.19,0.11,0.4,0.15,0.62,0.15
		c0.14,0,0.26-0.01,0.4-0.03c0.14-0.03,0.26-0.05,0.38-0.1c0.12-0.04,0.23-0.08,0.34-0.14c0.11-0.05,0.19-0.11,0.27-0.18V40.26z"/>
	<path d="M134.95,43.92c-0.19,0.48-0.45,0.88-0.77,1.21c-0.33,0.33-0.7,0.58-1.13,0.73c-0.42,0.17-0.87,0.25-1.33,0.25
		c-0.15,0-0.32,0-0.49-0.01c-0.18-0.01-0.34-0.03-0.52-0.04c-0.17-0.03-0.33-0.05-0.49-0.07c-0.17-0.03-0.32-0.05-0.45-0.08
		c0.04-0.21,0.07-0.44,0.1-0.67c0.03-0.25,0.04-0.47,0.04-0.67v-7.54l-0.91-0.37v-0.3c0.31-0.1,0.62-0.15,0.91-0.19
		c0.27-0.03,0.52-0.05,0.74-0.05h0.47l-0.08,0.77v3.1c0.22-0.19,0.48-0.34,0.78-0.45c0.32-0.12,0.63-0.18,0.95-0.18
		c0.34,0,0.67,0.07,0.97,0.19c0.3,0.12,0.56,0.32,0.78,0.56c0.23,0.23,0.4,0.54,0.54,0.89c0.12,0.37,0.19,0.78,0.19,1.25
		C135.24,42.88,135.14,43.43,134.95,43.92z M133.92,41.53c-0.1-0.27-0.22-0.51-0.38-0.7c-0.16-0.19-0.34-0.33-0.55-0.43
		c-0.22-0.1-0.44-0.15-0.67-0.15c-0.26,0-0.51,0.03-0.71,0.08c-0.21,0.07-0.41,0.14-0.59,0.25v4.64c0.11,0.03,0.23,0.05,0.36,0.08
		c0.12,0.01,0.25,0.03,0.37,0.03c0.31,0,0.62-0.05,0.91-0.16c0.28-0.1,0.52-0.27,0.73-0.51c0.22-0.22,0.38-0.52,0.51-0.88
		c0.12-0.36,0.18-0.78,0.18-1.29C134.05,42.14,134.01,41.81,133.92,41.53z"/>
	<path d="M141.51,42.77h-4.05c0,0.38,0.05,0.73,0.15,1.03c0.11,0.3,0.26,0.55,0.44,0.76c0.18,0.21,0.4,0.37,0.65,0.48
		c0.25,0.11,0.51,0.16,0.8,0.16c0.16,0,0.33-0.01,0.51-0.04c0.18-0.03,0.34-0.07,0.51-0.12c0.18-0.04,0.33-0.11,0.49-0.18
		c0.15-0.08,0.3-0.17,0.43-0.25c0.01,0.03,0.03,0.08,0.04,0.15c0.01,0.07,0.01,0.14,0.01,0.21c0,0.17-0.05,0.32-0.17,0.45
		c-0.11,0.14-0.26,0.27-0.47,0.38c-0.21,0.11-0.45,0.19-0.74,0.26c-0.3,0.07-0.63,0.1-0.99,0.1c-0.4,0-0.76-0.07-1.1-0.22
		c-0.36-0.15-0.65-0.36-0.91-0.63c-0.26-0.28-0.47-0.61-0.62-0.99c-0.14-0.38-0.22-0.82-0.22-1.3c0-0.59,0.08-1.13,0.25-1.6
		c0.16-0.45,0.38-0.84,0.66-1.15c0.26-0.3,0.56-0.55,0.91-0.7c0.34-0.16,0.7-0.25,1.06-0.25c0.37,0,0.7,0.06,1,0.18
		c0.29,0.12,0.54,0.29,0.74,0.51c0.21,0.23,0.36,0.5,0.47,0.81c0.11,0.33,0.16,0.67,0.16,1.07c0,0.14,0,0.26,0,0.41
		C141.52,42.44,141.52,42.6,141.51,42.77z M140.31,41.17c-0.07-0.25-0.16-0.45-0.29-0.62c-0.12-0.16-0.26-0.29-0.44-0.37
		c-0.17-0.08-0.36-0.12-0.55-0.12c-0.19,0-0.37,0.06-0.56,0.17c-0.19,0.1-0.36,0.25-0.49,0.43c-0.15,0.18-0.26,0.4-0.36,0.63
		c-0.1,0.25-0.14,0.49-0.14,0.77h2.94C140.43,41.71,140.38,41.42,140.31,41.17z"/>
	<path d="M147.99,45.87c-0.15,0.1-0.33,0.21-0.52,0.3c-0.14-0.11-0.26-0.23-0.38-0.38c-0.11-0.15-0.21-0.3-0.27-0.44
		c-0.11,0.11-0.23,0.22-0.38,0.32c-0.14,0.1-0.29,0.18-0.44,0.25c-0.16,0.07-0.32,0.12-0.48,0.16c-0.17,0.04-0.32,0.06-0.45,0.06
		c-0.34,0-0.67-0.07-0.98-0.21c-0.3-0.14-0.56-0.34-0.8-0.59c-0.22-0.26-0.4-0.58-0.54-0.95c-0.12-0.37-0.19-0.78-0.19-1.24
		c0-0.62,0.08-1.17,0.26-1.63c0.18-0.48,0.41-0.88,0.71-1.2c0.29-0.33,0.65-0.58,1.04-0.74c0.4-0.17,0.81-0.25,1.26-0.25
		c0.17,0,0.33,0.01,0.51,0.03c0.18,0.01,0.33,0.04,0.44,0.07v-2.42l-0.93-0.37v-0.3c0.32-0.1,0.63-0.15,0.93-0.19
		c0.32-0.03,0.56-0.05,0.77-0.05h0.44l-0.08,0.77v7.87c0.05,0.14,0.12,0.28,0.21,0.41c0.08,0.14,0.18,0.27,0.32,0.38
		C148.29,45.65,148.14,45.76,147.99,45.87z M146.8,40.26c-0.11-0.04-0.26-0.07-0.45-0.11c-0.18-0.03-0.36-0.04-0.55-0.04
		c-0.29,0-0.56,0.05-0.81,0.18c-0.25,0.11-0.47,0.29-0.66,0.52c-0.18,0.23-0.31,0.52-0.43,0.88c-0.1,0.36-0.15,0.77-0.15,1.25
		c0,0.37,0.04,0.7,0.14,0.99c0.1,0.29,0.22,0.54,0.37,0.73c0.15,0.19,0.32,0.34,0.52,0.44c0.19,0.11,0.4,0.15,0.62,0.15
		c0.14,0,0.26-0.01,0.4-0.03c0.14-0.03,0.26-0.05,0.38-0.1c0.12-0.04,0.23-0.08,0.34-0.14c0.11-0.05,0.19-0.11,0.28-0.18V40.26z"/>
	<path d="M153.62,40.35c-0.04,0.15-0.1,0.29-0.17,0.41c-0.12-0.1-0.26-0.18-0.41-0.23c-0.15-0.05-0.29-0.08-0.44-0.08
		c-0.43,0-0.82,0.19-1.21,0.56v4.37l0.95,0.21v0.26c-0.11,0.04-0.23,0.08-0.36,0.11c-0.11,0.03-0.23,0.06-0.37,0.07
		c-0.14,0.01-0.29,0.03-0.44,0.04c-0.17,0-0.34,0.01-0.54,0.01c-0.21,0-0.4-0.01-0.58-0.03c-0.19-0.01-0.37-0.04-0.52-0.1v-0.23
		c0.1-0.03,0.18-0.07,0.26-0.12c0.1-0.05,0.16-0.11,0.23-0.18c0.07-0.05,0.12-0.12,0.18-0.21c0.04-0.07,0.05-0.15,0.05-0.23v-4.64
		l-0.89-0.37v-0.3c0.32-0.1,0.62-0.15,0.91-0.19c0.29-0.04,0.54-0.06,0.74-0.06h0.33v0.96h0.01l0.38-0.43
		c0.18-0.21,0.38-0.36,0.58-0.45c0.19-0.1,0.4-0.15,0.63-0.15c0.48,0,0.71,0.19,0.71,0.59C153.67,40.06,153.66,40.2,153.62,40.35z"
		/>
	<path d="M156.68,45.95c-0.12,0.03-0.23,0.06-0.37,0.07c-0.12,0.01-0.26,0.03-0.4,0.04c-0.15,0-0.3,0.01-0.48,0.01
		c-0.15,0-0.33-0.01-0.51-0.03c-0.19-0.01-0.37-0.04-0.52-0.1v-0.23c0.1-0.03,0.18-0.07,0.27-0.12c0.08-0.05,0.17-0.11,0.23-0.18
		c0.07-0.05,0.12-0.12,0.16-0.21c0.04-0.07,0.05-0.15,0.05-0.23v-4.64l-0.88-0.37v-0.29c0.32-0.1,0.62-0.15,0.91-0.19
		c0.29-0.06,0.54-0.07,0.73-0.07h0.44l-0.07,0.74v5.22l0.77,0.21v0.26C156.9,45.89,156.79,45.93,156.68,45.95z M156.42,37.64
		c-0.04,0.1-0.1,0.19-0.17,0.26c-0.07,0.08-0.15,0.14-0.25,0.18c-0.1,0.05-0.19,0.07-0.3,0.07c-0.1,0-0.19-0.01-0.29-0.05
		c-0.08-0.04-0.17-0.1-0.23-0.17c-0.05-0.07-0.11-0.15-0.15-0.25c-0.04-0.1-0.05-0.21-0.05-0.32c0-0.11,0.01-0.21,0.05-0.3
		c0.03-0.1,0.08-0.18,0.15-0.26c0.07-0.08,0.15-0.14,0.25-0.18c0.1-0.04,0.21-0.07,0.33-0.07c0.1,0,0.19,0.01,0.28,0.05
		c0.08,0.03,0.16,0.08,0.23,0.15c0.07,0.05,0.11,0.14,0.15,0.23c0.04,0.08,0.05,0.19,0.05,0.3
		C156.48,37.42,156.46,37.53,156.42,37.64z"/>
	<path d="M159.87,40.19v6.17c0,0.56-0.04,1.03-0.12,1.42c-0.08,0.37-0.19,0.67-0.33,0.91c-0.14,0.23-0.3,0.4-0.49,0.5
		c-0.19,0.1-0.4,0.14-0.61,0.14c-0.16,0-0.3-0.03-0.44-0.08c-0.14-0.05-0.25-0.14-0.34-0.25v-0.22c0.15,0,0.3-0.04,0.45-0.12
		c0.14-0.1,0.28-0.22,0.38-0.4c0.11-0.18,0.21-0.4,0.26-0.66c0.07-0.26,0.11-0.56,0.11-0.91v-6.33l-0.88-0.37v-0.29
		c0.32-0.1,0.62-0.15,0.91-0.19c0.29-0.06,0.54-0.07,0.73-0.07h0.45L159.87,40.19z M160.02,37.64c-0.04,0.1-0.08,0.19-0.15,0.26
		c-0.08,0.08-0.15,0.14-0.25,0.18c-0.1,0.05-0.19,0.07-0.3,0.07c-0.11,0-0.21-0.01-0.29-0.05c-0.1-0.04-0.17-0.1-0.23-0.17
		c-0.07-0.07-0.12-0.15-0.15-0.25c-0.04-0.1-0.05-0.21-0.05-0.32c0-0.11,0.01-0.21,0.04-0.3c0.04-0.1,0.1-0.18,0.17-0.26
		c0.07-0.08,0.15-0.14,0.25-0.18c0.1-0.04,0.21-0.07,0.33-0.07c0.08,0,0.18,0.01,0.26,0.05c0.1,0.03,0.17,0.08,0.23,0.15
		c0.07,0.05,0.11,0.14,0.15,0.23c0.04,0.08,0.05,0.19,0.05,0.3C160.08,37.42,160.06,37.53,160.02,37.64z"/>
	<path d="M166.2,36.97c-0.01,0.08-0.03,0.16-0.05,0.23c-0.12-0.04-0.26-0.08-0.43-0.12c-0.15-0.04-0.3-0.07-0.47-0.1
		c-0.16-0.01-0.33-0.04-0.48-0.06c-0.17-0.01-0.32-0.01-0.45-0.01s-0.28,0.03-0.4,0.1c-0.12,0.07-0.23,0.16-0.32,0.29
		c-0.1,0.12-0.16,0.29-0.22,0.47c-0.05,0.19-0.08,0.4-0.08,0.64c0,0.06,0,0.12,0.01,0.23c0,0.11,0,0.22,0.01,0.34
		c0,0.12,0,0.25,0.01,0.37c0,0.11,0.01,0.21,0.01,0.29h1.75l-0.17,0.74h-1.59v4.99l0.87,0.21v0.26c-0.11,0.04-0.23,0.08-0.36,0.11
		c-0.11,0.03-0.25,0.06-0.37,0.07c-0.14,0.01-0.29,0.03-0.44,0.04c-0.16,0-0.33,0.01-0.52,0.01c-0.17,0-0.34-0.01-0.52-0.03
		c-0.18-0.01-0.36-0.04-0.51-0.1v-0.23c0.1-0.03,0.18-0.07,0.26-0.12c0.1-0.05,0.16-0.11,0.23-0.18c0.07-0.05,0.14-0.12,0.18-0.21
		c0.04-0.07,0.05-0.15,0.05-0.23v-4.59h-0.76v-0.48l0.76-0.3v-1.02c0-0.37,0.06-0.7,0.17-1c0.12-0.3,0.29-0.58,0.52-0.8
		c0.22-0.22,0.5-0.38,0.82-0.51c0.33-0.12,0.7-0.19,1.13-0.19c0.5,0,0.84,0.07,1.04,0.18c0.22,0.12,0.32,0.28,0.32,0.48
		C166.22,36.82,166.22,36.89,166.2,36.97z"/>
	<path d="M55.27,61.55c-0.18,0.03-0.38,0.04-0.59,0.04c-0.16,0-0.33-0.01-0.49-0.04c-0.16-0.03-0.32-0.05-0.45-0.1v-0.23
		c0.11-0.05,0.22-0.12,0.3-0.21c0.08-0.08,0.15-0.19,0.18-0.32l1.72-7.35l-0.74-0.17v-0.33c0.08-0.03,0.19-0.04,0.32-0.07
		c0.12-0.01,0.25-0.03,0.37-0.04c0.12-0.03,0.26-0.04,0.38-0.04c0.12-0.01,0.23-0.01,0.34-0.01h0.45l1.21,6.55h0.01l2.27-6.55h0.34
		c0.08,0,0.18,0,0.29,0c0.12,0.01,0.23,0.01,0.36,0.03c0.11,0,0.23,0.01,0.34,0.03c0.12,0.01,0.23,0.04,0.33,0.05v0.33l-0.65,0.16
		l0.32,7.61l0.76,0.21v0.28c-0.21,0.07-0.4,0.12-0.56,0.15c-0.18,0.04-0.36,0.05-0.56,0.05c-0.29,0-0.52-0.01-0.7-0.03
		c-0.18-0.03-0.36-0.05-0.51-0.11v-0.23c0.12-0.05,0.23-0.14,0.3-0.25c0.08-0.1,0.12-0.26,0.12-0.47l-0.08-6.09h-0.01l-2.5,7.21
		l-0.41-0.03l-1.35-7.19h-0.01l-1.32,6.47l0.78,0.22v0.28C55.62,61.46,55.43,61.52,55.27,61.55z"/>
	<path d="M63.75,61.44c-0.11-0.11-0.17-0.26-0.17-0.47c0-0.1,0-0.22,0.01-0.37c0.01-0.15,0.03-0.3,0.05-0.47
		c0.01-0.18,0.04-0.34,0.07-0.51c0.01-0.18,0.03-0.33,0.05-0.47l0.44-2.79l0.07-0.81l-0.82-0.26v-0.26
		c0.22-0.08,0.44-0.14,0.67-0.18c0.22-0.04,0.45-0.06,0.7-0.06c0.12,0,0.23,0,0.33,0.01c0.11,0.01,0.19,0.03,0.29,0.07l-0.62,4.04
		c-0.01,0.1-0.03,0.22-0.04,0.36c-0.01,0.14-0.03,0.26-0.04,0.4c0,0.14-0.01,0.26-0.03,0.38c0,0.14,0,0.23,0,0.33
		c0,0.23,0.04,0.4,0.12,0.51c0.1,0.12,0.23,0.21,0.43,0.28v0.23c-0.15,0.07-0.3,0.11-0.47,0.14c-0.16,0.04-0.36,0.05-0.56,0.05
		C64.03,61.6,63.86,61.55,63.75,61.44z M65.77,52.95c-0.04,0.11-0.1,0.19-0.17,0.28c-0.07,0.07-0.15,0.14-0.25,0.18
		c-0.1,0.04-0.19,0.07-0.29,0.07c-0.19,0-0.34-0.06-0.45-0.18c-0.12-0.11-0.18-0.27-0.18-0.48c0-0.11,0.01-0.22,0.05-0.33
		c0.06-0.1,0.11-0.19,0.18-0.26c0.07-0.08,0.15-0.14,0.23-0.19c0.1-0.04,0.19-0.07,0.3-0.07c0.18,0,0.33,0.07,0.45,0.19
		c0.11,0.12,0.18,0.28,0.18,0.47C65.84,52.73,65.81,52.85,65.77,52.95z"/>
	<path d="M71.53,56.41c-0.01,0.14-0.04,0.29-0.05,0.44c-0.03,0.15-0.06,0.3-0.07,0.47c-0.03,0.15-0.04,0.3-0.07,0.45l-0.25,1.48
		c-0.01,0.08-0.01,0.16-0.03,0.27c-0.01,0.1-0.03,0.19-0.04,0.3c-0.01,0.11-0.03,0.21-0.03,0.3c-0.01,0.11-0.01,0.19-0.01,0.26
		c0,0.23,0.06,0.4,0.17,0.49c0.11,0.11,0.26,0.18,0.48,0.22v0.23c-0.15,0.08-0.33,0.15-0.51,0.19c-0.18,0.04-0.37,0.07-0.59,0.07
		c-0.22,0-0.38-0.05-0.49-0.16c-0.12-0.11-0.18-0.26-0.18-0.47c0-0.08,0.01-0.19,0.01-0.32c0.01-0.11,0.03-0.25,0.04-0.37
		c0.01-0.14,0.04-0.27,0.05-0.4c0.01-0.14,0.04-0.26,0.05-0.37l0.26-1.58c0.01-0.11,0.03-0.22,0.05-0.34
		c0.01-0.12,0.03-0.25,0.04-0.37c0.01-0.12,0.03-0.25,0.03-0.36c0.01-0.11,0.01-0.22,0.01-0.32c0-0.15-0.01-0.27-0.04-0.38
		c-0.04-0.11-0.08-0.19-0.14-0.26c-0.05-0.05-0.12-0.11-0.19-0.14c-0.07-0.03-0.15-0.04-0.23-0.04c-0.19,0-0.4,0.08-0.62,0.26
		c-0.22,0.18-0.43,0.41-0.6,0.73c-0.19,0.3-0.36,0.67-0.48,1.08c-0.14,0.43-0.21,0.88-0.22,1.36l-0.08,2.32h-1.17l0.69-5.92
		l-0.84-0.26v-0.26c0.22-0.08,0.44-0.14,0.66-0.18c0.21-0.04,0.45-0.06,0.7-0.06c0.1,0,0.18,0.01,0.27,0.03
		c0.1,0.01,0.19,0.03,0.29,0.07L67.97,57h0.01c0.15-0.36,0.33-0.66,0.52-0.94c0.19-0.28,0.38-0.51,0.6-0.7
		c0.21-0.19,0.43-0.33,0.66-0.44c0.22-0.1,0.45-0.15,0.69-0.15c0.15,0,0.3,0.03,0.43,0.08c0.14,0.05,0.25,0.14,0.34,0.23
		c0.1,0.11,0.18,0.25,0.23,0.4c0.05,0.15,0.08,0.34,0.08,0.55C71.55,56.15,71.55,56.27,71.53,56.41z"/>
	<path d="M73.09,61.44c-0.11-0.11-0.17-0.26-0.17-0.47c0-0.1,0-0.22,0.01-0.37c0.01-0.15,0.03-0.3,0.05-0.47
		c0.01-0.18,0.04-0.34,0.07-0.51c0.01-0.18,0.03-0.33,0.05-0.47l0.44-2.79l0.07-0.81l-0.82-0.26v-0.26
		c0.22-0.08,0.44-0.14,0.67-0.18c0.22-0.04,0.45-0.06,0.7-0.06c0.12,0,0.23,0,0.33,0.01c0.11,0.01,0.19,0.03,0.29,0.07l-0.62,4.04
		c-0.01,0.1-0.03,0.22-0.04,0.36c-0.01,0.14-0.03,0.26-0.04,0.4c0,0.14-0.01,0.26-0.03,0.38c0,0.14,0,0.23,0,0.33
		c0,0.23,0.04,0.4,0.12,0.51c0.1,0.12,0.23,0.21,0.43,0.28v0.23c-0.15,0.07-0.3,0.11-0.47,0.14c-0.16,0.04-0.36,0.05-0.56,0.05
		C73.36,61.6,73.2,61.55,73.09,61.44z M75.11,52.95c-0.04,0.11-0.1,0.19-0.16,0.28c-0.07,0.07-0.15,0.14-0.25,0.18
		c-0.1,0.04-0.19,0.07-0.29,0.07c-0.19,0-0.34-0.06-0.45-0.18c-0.12-0.11-0.18-0.27-0.18-0.48c0-0.11,0.01-0.22,0.05-0.33
		c0.06-0.1,0.11-0.19,0.18-0.26c0.07-0.08,0.15-0.14,0.23-0.19c0.1-0.04,0.19-0.07,0.3-0.07c0.18,0,0.33,0.07,0.45,0.19
		c0.11,0.12,0.18,0.28,0.18,0.47C75.18,52.73,75.15,52.85,75.11,52.95z"/>
	<path d="M79.47,55.89c-0.06,0.14-0.11,0.25-0.18,0.33c-0.21-0.21-0.44-0.37-0.71-0.49c-0.26-0.12-0.54-0.18-0.78-0.18
		c-0.32,0-0.54,0.07-0.7,0.22c-0.15,0.14-0.23,0.33-0.23,0.55c0,0.1,0.01,0.19,0.04,0.28c0.03,0.08,0.07,0.18,0.12,0.26
		c0.07,0.1,0.15,0.19,0.26,0.31c0.12,0.11,0.26,0.25,0.43,0.4l0.52,0.47c0.16,0.15,0.3,0.29,0.43,0.41
		c0.11,0.12,0.19,0.26,0.26,0.38c0.07,0.12,0.12,0.25,0.15,0.37c0.03,0.14,0.04,0.28,0.04,0.43c0,0.27-0.05,0.52-0.19,0.77
		c-0.12,0.25-0.3,0.47-0.54,0.66c-0.23,0.18-0.49,0.33-0.81,0.44c-0.3,0.11-0.63,0.16-1,0.16c-0.43,0-0.74-0.07-0.95-0.19
		c-0.19-0.14-0.3-0.33-0.3-0.59c0-0.12,0.03-0.23,0.07-0.32c0.03-0.1,0.08-0.18,0.15-0.26c0.19,0.19,0.4,0.33,0.62,0.43
		c0.22,0.1,0.47,0.15,0.71,0.15c0.17,0,0.32-0.03,0.45-0.07c0.15-0.04,0.27-0.11,0.38-0.19c0.11-0.08,0.19-0.18,0.25-0.29
		c0.05-0.12,0.1-0.25,0.1-0.4c0-0.11-0.01-0.22-0.04-0.31c-0.03-0.1-0.07-0.21-0.14-0.3c-0.07-0.11-0.15-0.22-0.26-0.33
		c-0.11-0.12-0.25-0.26-0.41-0.41l-0.5-0.44c-0.15-0.15-0.27-0.28-0.38-0.4c-0.11-0.12-0.19-0.25-0.25-0.37
		c-0.07-0.12-0.11-0.25-0.14-0.37c-0.03-0.12-0.04-0.26-0.04-0.41c0-0.23,0.06-0.45,0.17-0.67c0.1-0.21,0.25-0.4,0.43-0.58
		c0.19-0.17,0.41-0.3,0.67-0.41c0.26-0.1,0.56-0.15,0.88-0.15c0.49,0,0.87,0.07,1.11,0.21c0.26,0.14,0.38,0.31,0.38,0.54
		C79.54,55.62,79.51,55.75,79.47,55.89z"/>
	<path d="M83.28,55.54c-0.18,0.14-0.48,0.21-0.92,0.21h-0.38l-0.23,1.43c-0.03,0.17-0.05,0.36-0.1,0.56
		c-0.03,0.22-0.05,0.42-0.08,0.64c-0.03,0.22-0.06,0.44-0.07,0.63c-0.03,0.21-0.03,0.37-0.03,0.51c0,0.23,0.03,0.43,0.08,0.59
		c0.05,0.16,0.12,0.29,0.22,0.4c0.1,0.11,0.21,0.19,0.33,0.25c0.14,0.04,0.27,0.07,0.43,0.07c0.11,0,0.21,0,0.29-0.03
		c0.08-0.01,0.17-0.04,0.27-0.07v0.25c-0.03,0.08-0.08,0.16-0.15,0.23c-0.08,0.08-0.18,0.17-0.29,0.22
		c-0.1,0.07-0.23,0.11-0.37,0.15c-0.14,0.04-0.29,0.05-0.45,0.05c-0.45,0-0.81-0.14-1.04-0.44c-0.22-0.29-0.34-0.7-0.34-1.25
		c0-0.21,0.01-0.45,0.04-0.73c0.03-0.28,0.06-0.56,0.1-0.87c0.03-0.29,0.08-0.59,0.12-0.89c0.06-0.3,0.11-0.59,0.16-0.85l0.18-0.88
		c-0.15,0-0.29,0-0.4-0.01c-0.1,0-0.23-0.01-0.37-0.03v-0.18c0.22-0.32,0.49-0.61,0.82-0.89c0.32-0.29,0.66-0.55,1.03-0.76h0.21
		l-0.23,1.13h0.4c0.19,0,0.37-0.01,0.54-0.03c0.17-0.01,0.33-0.03,0.52-0.07C83.55,55.19,83.47,55.4,83.28,55.54z"/>
	<path d="M87.66,60.27c0.04,0.05,0.05,0.12,0.05,0.21c0,0.17-0.05,0.32-0.15,0.47c-0.11,0.15-0.25,0.28-0.43,0.38
		c-0.18,0.11-0.4,0.19-0.63,0.26c-0.25,0.07-0.51,0.1-0.78,0.1c-0.29,0-0.56-0.04-0.8-0.14c-0.25-0.1-0.44-0.25-0.62-0.44
		c-0.17-0.21-0.3-0.45-0.4-0.76c-0.1-0.29-0.14-0.65-0.14-1.06c0-0.77,0.08-1.44,0.26-2.01c0.18-0.58,0.4-1.04,0.67-1.43
		c0.29-0.37,0.59-0.65,0.93-0.84c0.34-0.18,0.67-0.28,1.02-0.28c0.47,0,0.84,0.11,1.08,0.36c0.25,0.23,0.38,0.59,0.38,1.06
		c0,0.4-0.1,0.77-0.29,1.09c-0.19,0.33-0.44,0.6-0.74,0.82c-0.32,0.23-0.66,0.4-1.06,0.52c-0.38,0.12-0.8,0.18-1.2,0.18
		c0,0.41,0.03,0.76,0.08,1.03c0.05,0.26,0.12,0.47,0.23,0.63c0.11,0.15,0.23,0.26,0.38,0.32c0.15,0.05,0.33,0.08,0.54,0.08
		c0.12,0,0.25-0.01,0.4-0.05c0.14-0.03,0.29-0.07,0.43-0.14c0.14-0.07,0.26-0.14,0.38-0.22c0.11-0.08,0.21-0.18,0.27-0.28
		C87.59,60.17,87.63,60.21,87.66,60.27z M86.83,55.72c-0.11-0.14-0.27-0.21-0.47-0.21c-0.15,0-0.32,0.05-0.49,0.19
		c-0.17,0.12-0.33,0.3-0.47,0.52c-0.15,0.23-0.27,0.51-0.37,0.84c-0.1,0.32-0.14,0.67-0.14,1.07c0.3,0,0.59-0.04,0.85-0.12
		c0.26-0.08,0.48-0.19,0.67-0.34c0.19-0.15,0.33-0.33,0.44-0.55c0.11-0.22,0.15-0.45,0.15-0.72C87.01,56.08,86.96,55.86,86.83,55.72
		z"/>
	<path d="M88.71,55.03c0.22-0.08,0.44-0.14,0.65-0.18c0.22-0.04,0.45-0.06,0.69-0.06c0.1,0,0.19,0.01,0.29,0.03
		c0.11,0.01,0.21,0.03,0.29,0.07l-0.41,1.99h0.01l0.73-1.21c0.18-0.29,0.37-0.51,0.55-0.65c0.19-0.15,0.4-0.22,0.6-0.22
		c0.15,0,0.26,0.04,0.34,0.14c0.07,0.08,0.11,0.21,0.11,0.37c0,0.11-0.01,0.23-0.04,0.36c-0.03,0.12-0.05,0.25-0.11,0.36
		C92.34,56.01,92.27,56,92.2,56c-0.07-0.01-0.15-0.01-0.22-0.01c-0.22,0-0.43,0.07-0.65,0.19c-0.21,0.12-0.4,0.33-0.56,0.61
		c-0.16,0.27-0.32,0.63-0.43,1.07c-0.11,0.45-0.18,0.99-0.22,1.62l-0.11,2.01h-1.14l0.67-5.92l-0.84-0.26V55.03z"/>
	<path d="M93.13,61.44c-0.11-0.11-0.17-0.26-0.17-0.47c0-0.1,0-0.22,0.01-0.37c0.01-0.15,0.03-0.3,0.05-0.47
		c0.01-0.18,0.04-0.34,0.07-0.51c0.01-0.18,0.03-0.33,0.05-0.47l0.44-2.79l0.07-0.81l-0.82-0.26v-0.26
		c0.22-0.08,0.44-0.14,0.67-0.18c0.22-0.04,0.45-0.06,0.7-0.06c0.12,0,0.23,0,0.33,0.01c0.11,0.01,0.19,0.03,0.29,0.07l-0.62,4.04
		c-0.01,0.1-0.03,0.22-0.04,0.36c-0.01,0.14-0.03,0.26-0.04,0.4c0,0.14-0.01,0.26-0.03,0.38c0,0.14,0,0.23,0,0.33
		c0,0.23,0.04,0.4,0.12,0.51c0.1,0.12,0.23,0.21,0.43,0.28v0.23c-0.15,0.07-0.3,0.11-0.47,0.14c-0.16,0.04-0.36,0.05-0.56,0.05
		C93.4,61.6,93.24,61.55,93.13,61.44z M95.15,52.95c-0.04,0.11-0.1,0.19-0.17,0.28c-0.07,0.07-0.15,0.14-0.25,0.18
		c-0.1,0.04-0.19,0.07-0.29,0.07c-0.19,0-0.34-0.06-0.45-0.18c-0.12-0.11-0.18-0.27-0.18-0.48c0-0.11,0.01-0.22,0.05-0.33
		c0.06-0.1,0.11-0.19,0.18-0.26c0.07-0.08,0.15-0.14,0.23-0.19c0.1-0.04,0.19-0.07,0.3-0.07c0.18,0,0.33,0.07,0.45,0.19
		c0.11,0.12,0.18,0.28,0.18,0.47C95.22,52.73,95.19,52.85,95.15,52.95z"/>
	<path d="M99.68,60.27c0.04,0.05,0.05,0.12,0.05,0.21c0,0.17-0.05,0.32-0.15,0.47c-0.11,0.15-0.25,0.28-0.43,0.38
		c-0.18,0.11-0.4,0.19-0.63,0.26c-0.25,0.07-0.51,0.1-0.78,0.1c-0.29,0-0.56-0.04-0.8-0.14c-0.25-0.1-0.44-0.25-0.62-0.44
		c-0.17-0.21-0.3-0.45-0.4-0.76c-0.1-0.29-0.14-0.65-0.14-1.06c0-0.77,0.08-1.44,0.26-2.01c0.18-0.58,0.4-1.04,0.67-1.43
		c0.29-0.37,0.59-0.65,0.93-0.84c0.34-0.18,0.67-0.28,1.02-0.28c0.47,0,0.84,0.11,1.08,0.36c0.25,0.23,0.38,0.59,0.38,1.06
		c0,0.4-0.1,0.77-0.29,1.09c-0.19,0.33-0.44,0.6-0.74,0.82c-0.32,0.23-0.66,0.4-1.06,0.52c-0.38,0.12-0.8,0.18-1.2,0.18
		c0,0.41,0.03,0.76,0.08,1.03c0.05,0.26,0.12,0.47,0.23,0.63c0.11,0.15,0.23,0.26,0.38,0.32c0.15,0.05,0.33,0.08,0.54,0.08
		c0.12,0,0.25-0.01,0.4-0.05c0.14-0.03,0.29-0.07,0.43-0.14c0.14-0.07,0.26-0.14,0.38-0.22c0.11-0.08,0.21-0.18,0.27-0.28
		C99.61,60.17,99.65,60.21,99.68,60.27z M98.86,55.72c-0.11-0.14-0.27-0.21-0.47-0.21c-0.15,0-0.32,0.05-0.49,0.19
		c-0.17,0.12-0.33,0.3-0.47,0.52c-0.15,0.23-0.27,0.51-0.37,0.84c-0.1,0.32-0.14,0.67-0.14,1.07c0.3,0,0.59-0.04,0.85-0.12
		c0.26-0.08,0.48-0.19,0.67-0.34c0.19-0.15,0.33-0.33,0.44-0.55c0.11-0.22,0.15-0.45,0.15-0.72C99.04,56.08,98.98,55.86,98.86,55.72
		z"/>
	<path d="M104.68,60.5c0.25-0.3,0.48-0.65,0.69-1.03c0.22-0.38,0.4-0.77,0.55-1.17c0.15-0.4,0.27-0.8,0.36-1.21
		c0.1-0.4,0.14-0.77,0.14-1.13c0-0.19-0.04-0.34-0.14-0.45c-0.08-0.12-0.21-0.22-0.37-0.3v-0.22c0.11-0.07,0.25-0.11,0.38-0.15
		c0.14-0.04,0.3-0.06,0.47-0.06c0.22,0,0.4,0.07,0.54,0.19c0.14,0.12,0.21,0.33,0.21,0.63c0,0.23-0.03,0.51-0.1,0.81
		c-0.08,0.32-0.18,0.65-0.3,0.99c-0.12,0.34-0.26,0.69-0.44,1.04c-0.16,0.36-0.34,0.71-0.55,1.04c-0.19,0.33-0.4,0.64-0.62,0.95
		c-0.22,0.29-0.44,0.55-0.66,0.76c-0.14,0.12-0.26,0.22-0.37,0.29c-0.11,0.08-0.23,0.16-0.36,0.22h-0.28l-0.56-6.18l-0.59-0.23
		v-0.29c0.22-0.08,0.41-0.14,0.58-0.16c0.18-0.03,0.36-0.04,0.55-0.04c0.19,0,0.38,0.03,0.56,0.08l0.3,5.62H104.68z"/>
	<path d="M112.38,58.03c-0.04,0.23-0.07,0.48-0.1,0.71c-0.03,0.25-0.05,0.48-0.07,0.7c-0.01,0.22-0.03,0.4-0.03,0.55
		c0,0.22,0.01,0.4,0.03,0.54c0.03,0.14,0.07,0.25,0.11,0.33c0.05,0.07,0.12,0.14,0.21,0.16c0.08,0.04,0.19,0.07,0.32,0.08v0.29
		c-0.18,0.07-0.38,0.11-0.59,0.15c-0.21,0.03-0.43,0.05-0.63,0.05c-0.11,0-0.22-0.01-0.3-0.03c-0.1-0.01-0.19-0.04-0.27-0.07
		l0.32-2.05h-0.01c-0.14,0.34-0.29,0.65-0.45,0.92c-0.18,0.27-0.36,0.51-0.55,0.7c-0.18,0.19-0.37,0.33-0.56,0.44
		c-0.19,0.1-0.38,0.15-0.58,0.15c-0.15,0-0.32-0.05-0.45-0.15c-0.15-0.11-0.29-0.26-0.41-0.47c-0.11-0.21-0.21-0.45-0.27-0.76
		c-0.07-0.3-0.1-0.65-0.1-1.04c0-0.71,0.08-1.33,0.27-1.9c0.19-0.55,0.44-1.02,0.77-1.4c0.32-0.38,0.69-0.67,1.1-0.87
		c0.43-0.21,0.87-0.3,1.35-0.3c0.11,0,0.22,0.01,0.36,0.01c0.12,0.01,0.26,0.03,0.4,0.06c0.12,0.01,0.26,0.04,0.4,0.07
		c0.12,0.01,0.25,0.06,0.36,0.08l-0.47,2.4C112.46,57.59,112.42,57.79,112.38,58.03z M111.44,55.57c-0.14-0.01-0.26-0.01-0.36-0.01
		c-0.29,0-0.55,0.07-0.8,0.22c-0.25,0.14-0.47,0.36-0.66,0.66c-0.18,0.29-0.33,0.66-0.45,1.09c-0.11,0.44-0.16,0.96-0.16,1.54
		c0,0.29,0.03,0.55,0.07,0.76c0.04,0.21,0.1,0.38,0.15,0.52c0.07,0.12,0.15,0.22,0.23,0.29c0.08,0.07,0.16,0.1,0.25,0.1
		c0.14,0,0.3-0.05,0.47-0.18c0.17-0.11,0.33-0.29,0.48-0.52c0.15-0.22,0.3-0.52,0.43-0.87c0.14-0.36,0.25-0.77,0.33-1.24l0.37-2.28
		C111.69,55.61,111.58,55.58,111.44,55.57z"/>
	<path d="M118.91,56.41c-0.01,0.14-0.04,0.29-0.05,0.44c-0.03,0.15-0.06,0.3-0.07,0.47c-0.03,0.15-0.04,0.3-0.07,0.45l-0.25,1.48
		c-0.01,0.08-0.01,0.16-0.03,0.27c-0.01,0.1-0.03,0.19-0.04,0.3c-0.01,0.11-0.03,0.21-0.03,0.3c-0.01,0.11-0.01,0.19-0.01,0.26
		c0,0.23,0.06,0.4,0.17,0.49c0.11,0.11,0.26,0.18,0.48,0.22v0.23c-0.15,0.08-0.33,0.15-0.51,0.19c-0.18,0.04-0.37,0.07-0.59,0.07
		c-0.22,0-0.38-0.05-0.49-0.16c-0.12-0.11-0.18-0.26-0.18-0.47c0-0.08,0.01-0.19,0.01-0.32c0.01-0.11,0.03-0.25,0.04-0.37
		c0.01-0.14,0.04-0.27,0.05-0.4c0.01-0.14,0.04-0.26,0.05-0.37l0.26-1.58c0.01-0.11,0.03-0.22,0.05-0.34
		c0.01-0.12,0.03-0.25,0.04-0.37c0.01-0.12,0.03-0.25,0.03-0.36c0.01-0.11,0.01-0.22,0.01-0.32c0-0.15-0.01-0.27-0.04-0.38
		c-0.04-0.11-0.08-0.19-0.14-0.26c-0.05-0.05-0.12-0.11-0.19-0.14c-0.07-0.03-0.15-0.04-0.23-0.04c-0.19,0-0.4,0.08-0.62,0.26
		c-0.22,0.18-0.43,0.41-0.6,0.73c-0.19,0.3-0.36,0.67-0.48,1.08c-0.14,0.43-0.21,0.88-0.22,1.36l-0.08,2.32h-1.17l0.69-5.92
		l-0.84-0.26v-0.26c0.22-0.08,0.44-0.14,0.66-0.18c0.21-0.04,0.45-0.06,0.7-0.06c0.1,0,0.18,0.01,0.27,0.03
		c0.1,0.01,0.19,0.03,0.29,0.07l-0.44,2.1h0.01c0.15-0.36,0.33-0.66,0.52-0.94c0.19-0.28,0.38-0.51,0.6-0.7
		c0.21-0.19,0.43-0.33,0.66-0.44c0.22-0.1,0.45-0.15,0.69-0.15c0.15,0,0.3,0.03,0.43,0.08c0.14,0.05,0.25,0.14,0.34,0.23
		c0.1,0.11,0.18,0.25,0.23,0.4c0.05,0.15,0.08,0.34,0.08,0.55C118.93,56.15,118.93,56.27,118.91,56.41z"/>
	<path d="M127.82,55.34c-0.11,0.26-0.25,0.49-0.44,0.71c-0.19,0.21-0.41,0.38-0.67,0.54c-0.26,0.15-0.55,0.26-0.87,0.33v0.01
		c0.29,0,0.55,0.04,0.8,0.14c0.25,0.1,0.45,0.22,0.65,0.38c0.18,0.17,0.33,0.36,0.43,0.58c0.11,0.22,0.17,0.47,0.17,0.73
		c0,0.42-0.1,0.82-0.27,1.17c-0.19,0.36-0.44,0.66-0.77,0.91c-0.33,0.25-0.73,0.43-1.18,0.56c-0.45,0.14-0.96,0.21-1.51,0.21
		c-0.23,0-0.44,0-0.63-0.01c-0.18,0-0.36-0.01-0.52-0.01c-0.17-0.01-0.32-0.03-0.47-0.05c-0.15-0.01-0.29-0.04-0.43-0.07v-0.23
		c0.12-0.07,0.25-0.15,0.34-0.28c0.11-0.11,0.16-0.27,0.19-0.47l0.84-7.09l-0.74-0.22v-0.3c0.4-0.07,0.84-0.12,1.3-0.16
		c0.45-0.04,0.93-0.06,1.4-0.06c0.82,0,1.46,0.17,1.9,0.5c0.43,0.33,0.65,0.78,0.65,1.35C127.97,54.79,127.92,55.08,127.82,55.34z
		 M126.53,58.26c-0.1-0.21-0.25-0.37-0.44-0.51c-0.21-0.14-0.47-0.25-0.8-0.32c-0.33-0.07-0.73-0.11-1.2-0.11l-0.44,3.47
		c0.15,0.03,0.29,0.04,0.44,0.04c0.15,0.01,0.3,0.01,0.44,0.01c0.3,0,0.59-0.04,0.85-0.14c0.26-0.1,0.48-0.22,0.67-0.38
		c0.19-0.16,0.33-0.37,0.44-0.6c0.11-0.23,0.16-0.49,0.16-0.77C126.67,58.7,126.63,58.47,126.53,58.26z M126.66,54.07
		c-0.08-0.15-0.19-0.29-0.33-0.4c-0.14-0.11-0.3-0.19-0.48-0.25c-0.19-0.05-0.4-0.08-0.63-0.08c-0.12,0-0.23,0-0.33,0
		c-0.08,0.01-0.19,0.01-0.33,0.03l-0.4,3.32c0.4,0,0.76-0.05,1.09-0.15c0.32-0.1,0.59-0.23,0.82-0.4c0.23-0.18,0.4-0.4,0.52-0.66
		c0.12-0.25,0.18-0.54,0.18-0.85C126.77,54.43,126.72,54.24,126.66,54.07z"/>
	<path d="M129.32,61.44c-0.11-0.11-0.17-0.26-0.17-0.47c0-0.1,0-0.22,0.01-0.37c0.01-0.15,0.03-0.3,0.05-0.47
		c0.01-0.18,0.04-0.34,0.07-0.51c0.01-0.18,0.03-0.33,0.05-0.47l0.44-2.79l0.07-0.81l-0.82-0.26v-0.26
		c0.22-0.08,0.44-0.14,0.67-0.18c0.22-0.04,0.45-0.06,0.7-0.06c0.12,0,0.23,0,0.33,0.01c0.11,0.01,0.19,0.03,0.29,0.07l-0.62,4.04
		c-0.01,0.1-0.03,0.22-0.04,0.36c-0.01,0.14-0.03,0.26-0.04,0.4c0,0.14-0.01,0.26-0.03,0.38c0,0.14,0,0.23,0,0.33
		c0,0.23,0.04,0.4,0.12,0.51c0.1,0.12,0.23,0.21,0.43,0.28v0.23c-0.15,0.07-0.3,0.11-0.47,0.14c-0.16,0.04-0.36,0.05-0.56,0.05
		C129.59,61.6,129.43,61.55,129.32,61.44z M131.34,52.95c-0.04,0.11-0.1,0.19-0.17,0.28c-0.07,0.07-0.15,0.14-0.25,0.18
		c-0.1,0.04-0.19,0.07-0.29,0.07c-0.19,0-0.34-0.06-0.45-0.18c-0.12-0.11-0.18-0.27-0.18-0.48c0-0.11,0.01-0.22,0.06-0.33
		c0.05-0.1,0.11-0.19,0.18-0.26c0.07-0.08,0.15-0.14,0.23-0.19c0.1-0.04,0.19-0.07,0.3-0.07c0.18,0,0.33,0.07,0.45,0.19
		c0.11,0.12,0.18,0.28,0.18,0.47C131.41,52.73,131.38,52.85,131.34,52.95z"/>
	<path d="M137.1,56.41c-0.01,0.14-0.04,0.29-0.06,0.44c-0.03,0.15-0.05,0.3-0.07,0.47c-0.03,0.15-0.04,0.3-0.07,0.45l-0.25,1.48
		c-0.01,0.08-0.01,0.16-0.03,0.27c-0.01,0.1-0.03,0.19-0.04,0.3c-0.01,0.11-0.03,0.21-0.03,0.3c-0.01,0.11-0.01,0.19-0.01,0.26
		c0,0.23,0.06,0.4,0.17,0.49c0.11,0.11,0.26,0.18,0.48,0.22v0.23c-0.15,0.08-0.33,0.15-0.51,0.19c-0.18,0.04-0.37,0.07-0.59,0.07
		c-0.22,0-0.38-0.05-0.49-0.16c-0.12-0.11-0.18-0.26-0.18-0.47c0-0.08,0.01-0.19,0.01-0.32c0.01-0.11,0.03-0.25,0.04-0.37
		c0.01-0.14,0.04-0.27,0.05-0.4c0.01-0.14,0.04-0.26,0.06-0.37l0.26-1.58c0.01-0.11,0.03-0.22,0.05-0.34
		c0.01-0.12,0.03-0.25,0.04-0.37c0.01-0.12,0.03-0.25,0.03-0.36c0.01-0.11,0.01-0.22,0.01-0.32c0-0.15-0.01-0.27-0.04-0.38
		c-0.04-0.11-0.08-0.19-0.14-0.26c-0.05-0.05-0.12-0.11-0.19-0.14c-0.07-0.03-0.15-0.04-0.23-0.04c-0.19,0-0.4,0.08-0.62,0.26
		c-0.22,0.18-0.42,0.41-0.6,0.73c-0.19,0.3-0.36,0.67-0.48,1.08c-0.14,0.43-0.21,0.88-0.22,1.36l-0.08,2.32h-1.17l0.69-5.92
		l-0.84-0.26v-0.26c0.22-0.08,0.44-0.14,0.66-0.18c0.21-0.04,0.45-0.06,0.7-0.06c0.1,0,0.18,0.01,0.28,0.03
		c0.1,0.01,0.19,0.03,0.29,0.07l-0.44,2.1h0.01c0.15-0.36,0.33-0.66,0.52-0.94c0.19-0.28,0.38-0.51,0.6-0.7
		c0.21-0.19,0.43-0.33,0.66-0.44c0.22-0.1,0.45-0.15,0.69-0.15c0.15,0,0.3,0.03,0.43,0.08c0.14,0.05,0.25,0.14,0.34,0.23
		c0.1,0.11,0.18,0.25,0.23,0.4c0.06,0.15,0.08,0.34,0.08,0.55C137.11,56.15,137.11,56.27,137.1,56.41z"/>
	<path d="M143.33,56.41c-0.01,0.14-0.04,0.29-0.05,0.44c-0.03,0.15-0.05,0.3-0.07,0.47c-0.03,0.15-0.04,0.3-0.07,0.45l-0.25,1.48
		c-0.01,0.08-0.01,0.16-0.03,0.27c-0.01,0.1-0.03,0.19-0.04,0.3c-0.01,0.11-0.03,0.21-0.03,0.3c-0.01,0.11-0.01,0.19-0.01,0.26
		c0,0.23,0.05,0.4,0.16,0.49c0.11,0.11,0.26,0.18,0.48,0.22v0.23c-0.15,0.08-0.33,0.15-0.51,0.19c-0.18,0.04-0.37,0.07-0.59,0.07
		c-0.22,0-0.38-0.05-0.49-0.16c-0.12-0.11-0.18-0.26-0.18-0.47c0-0.08,0.01-0.19,0.01-0.32c0.01-0.11,0.03-0.25,0.04-0.37
		c0.01-0.14,0.04-0.27,0.05-0.4c0.01-0.14,0.04-0.26,0.05-0.37l0.26-1.58c0.01-0.11,0.03-0.22,0.05-0.34
		c0.01-0.12,0.03-0.25,0.04-0.37c0.01-0.12,0.03-0.25,0.03-0.36c0.01-0.11,0.01-0.22,0.01-0.32c0-0.15-0.01-0.27-0.04-0.38
		c-0.04-0.11-0.08-0.19-0.14-0.26c-0.06-0.05-0.12-0.11-0.19-0.14c-0.07-0.03-0.15-0.04-0.23-0.04c-0.19,0-0.4,0.08-0.62,0.26
		c-0.22,0.18-0.43,0.41-0.6,0.73c-0.19,0.3-0.36,0.67-0.48,1.08c-0.14,0.43-0.21,0.88-0.22,1.36l-0.08,2.32h-1.17l0.69-5.92
		l-0.84-0.26v-0.26c0.22-0.08,0.44-0.14,0.66-0.18c0.21-0.04,0.45-0.06,0.7-0.06c0.1,0,0.18,0.01,0.28,0.03
		c0.1,0.01,0.19,0.03,0.29,0.07l-0.44,2.1h0.01c0.15-0.36,0.33-0.66,0.52-0.94c0.19-0.28,0.38-0.51,0.6-0.7
		c0.21-0.19,0.43-0.33,0.66-0.44c0.22-0.1,0.45-0.15,0.69-0.15c0.15,0,0.3,0.03,0.43,0.08c0.14,0.05,0.25,0.14,0.34,0.23
		c0.1,0.11,0.18,0.25,0.23,0.4c0.05,0.15,0.08,0.34,0.08,0.55C143.35,56.15,143.35,56.27,143.33,56.41z"/>
	<path d="M148.37,60.27c0.04,0.05,0.05,0.12,0.05,0.21c0,0.17-0.05,0.32-0.15,0.47c-0.11,0.15-0.25,0.28-0.43,0.38
		c-0.18,0.11-0.4,0.19-0.63,0.26c-0.25,0.07-0.51,0.1-0.78,0.1c-0.29,0-0.56-0.04-0.8-0.14c-0.25-0.1-0.44-0.25-0.62-0.44
		c-0.16-0.21-0.3-0.45-0.4-0.76c-0.1-0.29-0.14-0.65-0.14-1.06c0-0.77,0.08-1.44,0.26-2.01c0.18-0.58,0.4-1.04,0.67-1.43
		c0.29-0.37,0.59-0.65,0.93-0.84c0.34-0.18,0.67-0.28,1.02-0.28c0.47,0,0.84,0.11,1.09,0.36c0.25,0.23,0.38,0.59,0.38,1.06
		c0,0.4-0.1,0.77-0.29,1.09c-0.19,0.33-0.44,0.6-0.74,0.82c-0.32,0.23-0.66,0.4-1.06,0.52c-0.38,0.12-0.8,0.18-1.2,0.18
		c0,0.41,0.03,0.76,0.08,1.03c0.05,0.26,0.12,0.47,0.23,0.63c0.11,0.15,0.23,0.26,0.38,0.32c0.15,0.05,0.33,0.08,0.54,0.08
		c0.12,0,0.25-0.01,0.4-0.05c0.14-0.03,0.29-0.07,0.43-0.14c0.14-0.07,0.26-0.14,0.38-0.22c0.11-0.08,0.21-0.18,0.28-0.28
		C148.3,60.17,148.34,60.21,148.37,60.27z M147.55,55.72c-0.11-0.14-0.27-0.21-0.47-0.21c-0.15,0-0.32,0.05-0.5,0.19
		c-0.16,0.12-0.33,0.3-0.47,0.52c-0.15,0.23-0.28,0.51-0.37,0.84c-0.1,0.32-0.14,0.67-0.14,1.07c0.3,0,0.59-0.04,0.85-0.12
		c0.26-0.08,0.48-0.19,0.67-0.34c0.19-0.15,0.33-0.33,0.44-0.55c0.11-0.22,0.15-0.45,0.15-0.72
		C147.72,56.08,147.67,55.86,147.55,55.72z"/>
	<path d="M154.48,56.41c-0.01,0.14-0.04,0.29-0.05,0.44c-0.03,0.15-0.05,0.3-0.07,0.47c-0.03,0.15-0.04,0.3-0.07,0.45l-0.25,1.48
		c-0.01,0.08-0.01,0.16-0.03,0.27c-0.01,0.1-0.03,0.19-0.04,0.3c-0.01,0.11-0.03,0.21-0.03,0.3c-0.01,0.11-0.01,0.19-0.01,0.26
		c0,0.23,0.05,0.4,0.16,0.49c0.11,0.11,0.26,0.18,0.48,0.22v0.23c-0.15,0.08-0.33,0.15-0.51,0.19c-0.18,0.04-0.37,0.07-0.59,0.07
		c-0.22,0-0.38-0.05-0.49-0.16c-0.12-0.11-0.18-0.26-0.18-0.47c0-0.08,0.01-0.19,0.01-0.32c0.01-0.11,0.03-0.25,0.04-0.37
		c0.01-0.14,0.04-0.27,0.05-0.4c0.01-0.14,0.04-0.26,0.05-0.37l0.26-1.58c0.01-0.11,0.03-0.22,0.05-0.34
		c0.01-0.12,0.03-0.25,0.04-0.37c0.01-0.12,0.03-0.25,0.03-0.36c0.01-0.11,0.01-0.22,0.01-0.32c0-0.15-0.01-0.27-0.04-0.38
		c-0.04-0.11-0.08-0.19-0.14-0.26c-0.06-0.05-0.12-0.11-0.19-0.14c-0.07-0.03-0.15-0.04-0.23-0.04c-0.19,0-0.4,0.08-0.62,0.26
		c-0.22,0.18-0.43,0.41-0.6,0.73c-0.19,0.3-0.36,0.67-0.48,1.08c-0.14,0.43-0.21,0.88-0.22,1.36l-0.08,2.32h-1.17l0.69-5.92
		l-0.84-0.26v-0.26c0.22-0.08,0.44-0.14,0.66-0.18c0.21-0.04,0.45-0.06,0.7-0.06c0.1,0,0.18,0.01,0.27,0.03
		c0.1,0.01,0.19,0.03,0.29,0.07l-0.44,2.1h0.01c0.15-0.36,0.33-0.66,0.52-0.94c0.19-0.28,0.38-0.51,0.6-0.7
		c0.21-0.19,0.43-0.33,0.66-0.44c0.22-0.1,0.45-0.15,0.69-0.15c0.15,0,0.3,0.03,0.43,0.08c0.14,0.05,0.25,0.14,0.34,0.23
		c0.1,0.11,0.18,0.25,0.23,0.4c0.05,0.15,0.08,0.34,0.08,0.55C154.5,56.15,154.5,56.27,154.48,56.41z"/>
	<path d="M156.04,61.44c-0.12-0.11-0.18-0.28-0.18-0.48c0-0.1,0.01-0.22,0.01-0.37c0.01-0.15,0.03-0.32,0.04-0.48
		c0.01-0.17,0.04-0.33,0.05-0.49c0.01-0.18,0.04-0.33,0.06-0.45l0.96-6.81l-0.87-0.26v-0.26c0.22-0.08,0.44-0.14,0.66-0.17
		c0.21-0.04,0.45-0.05,0.71-0.05c0.11,0,0.23,0,0.34,0.01c0.11,0.03,0.21,0.04,0.29,0.07l-1.03,7.2c-0.01,0.11-0.03,0.23-0.04,0.36
		c-0.01,0.14-0.03,0.28-0.04,0.41c0,0.12-0.01,0.26-0.01,0.4c-0.01,0.12-0.01,0.23-0.01,0.34c0,0.23,0.05,0.4,0.17,0.51
		c0.1,0.12,0.26,0.21,0.45,0.28v0.23c-0.3,0.12-0.64,0.19-1.06,0.19C156.32,61.6,156.15,61.55,156.04,61.44z"/>
	<path d="M163.08,58.03c-0.04,0.23-0.07,0.48-0.1,0.71c-0.03,0.25-0.05,0.48-0.07,0.7c-0.01,0.22-0.03,0.4-0.03,0.55
		c0,0.22,0.01,0.4,0.03,0.54c0.03,0.14,0.07,0.25,0.11,0.33c0.05,0.07,0.12,0.14,0.21,0.16c0.08,0.04,0.19,0.07,0.32,0.08v0.29
		c-0.18,0.07-0.38,0.11-0.59,0.15c-0.21,0.03-0.43,0.05-0.63,0.05c-0.11,0-0.22-0.01-0.3-0.03c-0.1-0.01-0.19-0.04-0.28-0.07
		l0.32-2.05h-0.01c-0.14,0.34-0.29,0.65-0.45,0.92c-0.18,0.27-0.36,0.51-0.55,0.7c-0.18,0.19-0.37,0.33-0.56,0.44
		c-0.19,0.1-0.38,0.15-0.58,0.15c-0.15,0-0.32-0.05-0.45-0.15c-0.15-0.11-0.29-0.26-0.41-0.47c-0.11-0.21-0.21-0.45-0.28-0.76
		c-0.07-0.3-0.1-0.65-0.1-1.04c0-0.71,0.08-1.33,0.28-1.9c0.19-0.55,0.44-1.02,0.77-1.4c0.32-0.38,0.69-0.67,1.1-0.87
		c0.43-0.21,0.87-0.3,1.35-0.3c0.11,0,0.22,0.01,0.36,0.01c0.12,0.01,0.26,0.03,0.4,0.06c0.12,0.01,0.26,0.04,0.4,0.07
		c0.12,0.01,0.25,0.06,0.36,0.08l-0.47,2.4C163.16,57.59,163.12,57.79,163.08,58.03z M162.14,55.57c-0.14-0.01-0.26-0.01-0.36-0.01
		c-0.29,0-0.55,0.07-0.8,0.22c-0.25,0.14-0.47,0.36-0.66,0.66c-0.18,0.29-0.33,0.66-0.45,1.09c-0.11,0.44-0.17,0.96-0.17,1.54
		c0,0.29,0.03,0.55,0.07,0.76c0.04,0.21,0.1,0.38,0.15,0.52c0.07,0.12,0.15,0.22,0.23,0.29c0.08,0.07,0.16,0.1,0.25,0.1
		c0.14,0,0.3-0.05,0.47-0.18c0.16-0.11,0.33-0.29,0.48-0.52c0.15-0.22,0.3-0.52,0.43-0.87c0.14-0.36,0.25-0.77,0.33-1.24l0.37-2.28
		C162.39,55.61,162.28,55.58,162.14,55.57z"/>
	<path d="M169.61,56.41c-0.01,0.14-0.04,0.29-0.05,0.44c-0.03,0.15-0.05,0.3-0.07,0.47c-0.03,0.15-0.04,0.3-0.07,0.45l-0.25,1.48
		c-0.01,0.08-0.01,0.16-0.03,0.27c-0.01,0.1-0.03,0.19-0.04,0.3c-0.01,0.11-0.03,0.21-0.03,0.3c-0.01,0.11-0.01,0.19-0.01,0.26
		c0,0.23,0.05,0.4,0.16,0.49c0.11,0.11,0.26,0.18,0.48,0.22v0.23c-0.15,0.08-0.33,0.15-0.51,0.19c-0.18,0.04-0.37,0.07-0.59,0.07
		c-0.22,0-0.38-0.05-0.49-0.16c-0.12-0.11-0.18-0.26-0.18-0.47c0-0.08,0.01-0.19,0.01-0.32c0.01-0.11,0.03-0.25,0.04-0.37
		c0.01-0.14,0.04-0.27,0.05-0.4c0.01-0.14,0.04-0.26,0.05-0.37l0.26-1.58c0.01-0.11,0.03-0.22,0.05-0.34
		c0.01-0.12,0.03-0.25,0.04-0.37c0.01-0.12,0.03-0.25,0.03-0.36c0.01-0.11,0.01-0.22,0.01-0.32c0-0.15-0.01-0.27-0.04-0.38
		c-0.04-0.11-0.08-0.19-0.14-0.26c-0.06-0.05-0.12-0.11-0.19-0.14c-0.07-0.03-0.15-0.04-0.23-0.04c-0.19,0-0.4,0.08-0.62,0.26
		c-0.22,0.18-0.43,0.41-0.6,0.73c-0.19,0.3-0.36,0.67-0.48,1.08c-0.14,0.43-0.21,0.88-0.22,1.36l-0.08,2.32h-1.17l0.69-5.92
		l-0.84-0.26v-0.26c0.22-0.08,0.44-0.14,0.66-0.18c0.21-0.04,0.45-0.06,0.7-0.06c0.1,0,0.18,0.01,0.27,0.03
		c0.1,0.01,0.19,0.03,0.29,0.07l-0.44,2.1h0.01c0.15-0.36,0.33-0.66,0.52-0.94c0.19-0.28,0.38-0.51,0.6-0.7
		c0.21-0.19,0.43-0.33,0.66-0.44c0.22-0.1,0.45-0.15,0.69-0.15c0.15,0,0.3,0.03,0.43,0.08c0.14,0.05,0.25,0.14,0.34,0.23
		c0.1,0.11,0.18,0.25,0.23,0.4c0.05,0.15,0.08,0.34,0.08,0.55C169.63,56.15,169.63,56.27,169.61,56.41z"/>
	<path d="M175.23,57.73c-0.01,0.15-0.04,0.3-0.07,0.47c-0.01,0.17-0.04,0.33-0.05,0.51c-0.03,0.18-0.04,0.34-0.07,0.51
		c-0.01,0.17-0.03,0.32-0.04,0.45c0,0.14-0.01,0.25-0.01,0.33c0,0.22,0.01,0.4,0.04,0.54c0.03,0.14,0.07,0.25,0.11,0.33
		c0.05,0.08,0.12,0.14,0.21,0.16c0.08,0.04,0.19,0.07,0.3,0.08v0.29c-0.22,0.07-0.41,0.12-0.6,0.15c-0.19,0.04-0.4,0.05-0.62,0.05
		c-0.11,0-0.22-0.01-0.32-0.03c-0.1-0.01-0.18-0.04-0.26-0.07l0.34-2.08h-0.01c-0.12,0.32-0.28,0.62-0.44,0.89
		c-0.17,0.26-0.34,0.51-0.54,0.7c-0.19,0.21-0.38,0.36-0.59,0.48c-0.19,0.11-0.4,0.16-0.59,0.16c-0.15,0-0.32-0.05-0.45-0.15
		c-0.15-0.1-0.29-0.25-0.4-0.45c-0.12-0.21-0.22-0.45-0.29-0.76c-0.07-0.3-0.11-0.66-0.11-1.06c0-0.69,0.1-1.31,0.28-1.86
		c0.18-0.55,0.44-1.03,0.74-1.41c0.32-0.38,0.69-0.67,1.1-0.88c0.41-0.21,0.85-0.32,1.3-0.32c0.08,0,0.17,0,0.26,0.01
		c0.1,0,0.19,0,0.26,0.01l0.4-2.47l-0.91-0.26v-0.26c0.22-0.08,0.44-0.14,0.67-0.17c0.22-0.04,0.49-0.05,0.78-0.05
		c0.12,0,0.23,0,0.33,0.01c0.11,0.03,0.21,0.04,0.3,0.07l-1,5.69C175.27,57.47,175.26,57.59,175.23,57.73z M174.28,55.57
		c-0.11-0.01-0.23-0.01-0.34-0.01c-0.29,0-0.55,0.07-0.81,0.21c-0.26,0.14-0.48,0.34-0.67,0.63c-0.19,0.29-0.34,0.64-0.47,1.09
		c-0.11,0.45-0.16,0.97-0.16,1.58c0,0.29,0.01,0.54,0.05,0.74c0.04,0.21,0.08,0.38,0.15,0.52c0.07,0.14,0.14,0.23,0.22,0.3
		c0.08,0.05,0.18,0.1,0.26,0.1c0.14,0,0.29-0.05,0.47-0.17c0.16-0.12,0.33-0.29,0.48-0.52c0.16-0.23,0.32-0.52,0.45-0.88
		c0.12-0.36,0.22-0.77,0.3-1.25l0.38-2.28C174.5,55.61,174.4,55.58,174.28,55.57z"/>
	<path d="M180.32,55.89c-0.05,0.14-0.11,0.25-0.18,0.33c-0.21-0.21-0.44-0.37-0.71-0.49c-0.26-0.12-0.54-0.18-0.78-0.18
		c-0.32,0-0.54,0.07-0.7,0.22c-0.15,0.14-0.23,0.33-0.23,0.55c0,0.1,0.01,0.19,0.04,0.28c0.03,0.08,0.07,0.18,0.12,0.26
		c0.07,0.1,0.15,0.19,0.26,0.31c0.12,0.11,0.26,0.25,0.43,0.4l0.52,0.47c0.16,0.15,0.3,0.29,0.43,0.41
		c0.11,0.12,0.19,0.26,0.26,0.38c0.07,0.12,0.12,0.25,0.15,0.37c0.03,0.14,0.04,0.28,0.04,0.43c0,0.27-0.05,0.52-0.19,0.77
		c-0.12,0.25-0.3,0.47-0.54,0.66c-0.23,0.18-0.5,0.33-0.81,0.44c-0.3,0.11-0.63,0.16-1,0.16c-0.43,0-0.74-0.07-0.95-0.19
		c-0.19-0.14-0.3-0.33-0.3-0.59c0-0.12,0.03-0.23,0.07-0.32c0.03-0.1,0.08-0.18,0.15-0.26c0.19,0.19,0.4,0.33,0.62,0.43
		c0.22,0.1,0.47,0.15,0.71,0.15c0.16,0,0.32-0.03,0.45-0.07c0.15-0.04,0.28-0.11,0.38-0.19c0.11-0.08,0.19-0.18,0.25-0.29
		c0.05-0.12,0.1-0.25,0.1-0.4c0-0.11-0.01-0.22-0.04-0.31c-0.03-0.1-0.07-0.21-0.14-0.3c-0.07-0.11-0.15-0.22-0.26-0.33
		c-0.11-0.12-0.25-0.26-0.41-0.41l-0.49-0.44c-0.15-0.15-0.27-0.28-0.38-0.4c-0.11-0.12-0.19-0.25-0.25-0.37
		c-0.07-0.12-0.11-0.25-0.14-0.37c-0.03-0.12-0.04-0.26-0.04-0.41c0-0.23,0.05-0.45,0.17-0.67c0.1-0.21,0.25-0.4,0.43-0.58
		c0.19-0.17,0.41-0.3,0.67-0.41c0.26-0.1,0.56-0.15,0.88-0.15c0.49,0,0.87,0.07,1.11,0.21c0.26,0.14,0.38,0.31,0.38,0.54
		C180.39,55.62,180.36,55.75,180.32,55.89z"/>
	<path d="M184.85,60.27c0.04,0.05,0.05,0.12,0.05,0.21c0,0.17-0.05,0.32-0.15,0.47c-0.11,0.15-0.25,0.28-0.43,0.38
		c-0.18,0.11-0.4,0.19-0.63,0.26c-0.25,0.07-0.51,0.1-0.78,0.1c-0.29,0-0.56-0.04-0.8-0.14c-0.25-0.1-0.44-0.25-0.62-0.44
		c-0.16-0.21-0.3-0.45-0.4-0.76c-0.1-0.29-0.14-0.65-0.14-1.06c0-0.77,0.08-1.44,0.26-2.01c0.18-0.58,0.4-1.04,0.67-1.43
		c0.29-0.37,0.59-0.65,0.93-0.84c0.34-0.18,0.67-0.28,1.02-0.28c0.47,0,0.84,0.11,1.09,0.36c0.25,0.23,0.38,0.59,0.38,1.06
		c0,0.4-0.1,0.77-0.29,1.09c-0.19,0.33-0.44,0.6-0.74,0.82c-0.32,0.23-0.66,0.4-1.06,0.52c-0.38,0.12-0.8,0.18-1.2,0.18
		c0,0.41,0.03,0.76,0.08,1.03c0.05,0.26,0.12,0.47,0.23,0.63c0.11,0.15,0.23,0.26,0.38,0.32c0.15,0.05,0.33,0.08,0.54,0.08
		c0.12,0,0.25-0.01,0.4-0.05c0.14-0.03,0.29-0.07,0.43-0.14c0.14-0.07,0.26-0.14,0.38-0.22c0.11-0.08,0.21-0.18,0.28-0.28
		C184.78,60.17,184.82,60.21,184.85,60.27z M184.03,55.72c-0.11-0.14-0.27-0.21-0.47-0.21c-0.15,0-0.32,0.05-0.5,0.19
		c-0.16,0.12-0.33,0.3-0.47,0.52c-0.15,0.23-0.28,0.51-0.37,0.84c-0.1,0.32-0.14,0.67-0.14,1.07c0.3,0,0.59-0.04,0.85-0.12
		c0.26-0.08,0.48-0.19,0.67-0.34c0.19-0.15,0.33-0.33,0.44-0.55c0.11-0.22,0.15-0.45,0.15-0.72
		C184.21,56.08,184.15,55.86,184.03,55.72z"/>
	<path d="M191.39,60.75c0.33,0,0.59-0.07,0.77-0.21c0.19-0.14,0.36-0.37,0.48-0.69l0.11-0.26h0.47l-0.32,1.88h-5.28v-0.29l4.55-7.72
		h-2.02c-0.15,0-0.28,0.01-0.4,0.05c-0.12,0.03-0.23,0.08-0.33,0.15c-0.1,0.08-0.19,0.18-0.27,0.3c-0.1,0.11-0.18,0.26-0.28,0.44
		l-0.1,0.19h-0.43l0.29-1.87h4.96v0.29l-4.52,7.72H191.39z"/>
	<path d="M198.4,58.03c-0.04,0.23-0.07,0.48-0.1,0.71c-0.03,0.25-0.05,0.48-0.07,0.7c-0.01,0.22-0.03,0.4-0.03,0.55
		c0,0.22,0.01,0.4,0.03,0.54c0.03,0.14,0.07,0.25,0.11,0.33c0.05,0.07,0.12,0.14,0.21,0.16c0.08,0.04,0.19,0.07,0.32,0.08v0.29
		c-0.18,0.07-0.38,0.11-0.59,0.15c-0.21,0.03-0.43,0.05-0.63,0.05c-0.11,0-0.22-0.01-0.3-0.03c-0.1-0.01-0.19-0.04-0.28-0.07
		l0.32-2.05h-0.01c-0.14,0.34-0.29,0.65-0.45,0.92c-0.18,0.27-0.36,0.51-0.55,0.7c-0.18,0.19-0.37,0.33-0.56,0.44
		c-0.19,0.1-0.38,0.15-0.58,0.15c-0.15,0-0.32-0.05-0.45-0.15c-0.15-0.11-0.29-0.26-0.41-0.47c-0.11-0.21-0.21-0.45-0.28-0.76
		c-0.07-0.3-0.1-0.65-0.1-1.04c0-0.71,0.08-1.33,0.28-1.9c0.19-0.55,0.44-1.02,0.77-1.4c0.32-0.38,0.69-0.67,1.1-0.87
		c0.43-0.21,0.87-0.3,1.35-0.3c0.11,0,0.22,0.01,0.36,0.01c0.12,0.01,0.26,0.03,0.4,0.06c0.12,0.01,0.26,0.04,0.4,0.07
		c0.12,0.01,0.25,0.06,0.36,0.08l-0.47,2.4C198.48,57.59,198.44,57.79,198.4,58.03z M197.46,55.57c-0.14-0.01-0.26-0.01-0.36-0.01
		c-0.29,0-0.55,0.07-0.8,0.22c-0.25,0.14-0.47,0.36-0.66,0.66c-0.18,0.29-0.33,0.66-0.45,1.09c-0.11,0.44-0.17,0.96-0.17,1.54
		c0,0.29,0.03,0.55,0.07,0.76c0.04,0.21,0.1,0.38,0.15,0.52c0.07,0.12,0.15,0.22,0.23,0.29c0.08,0.07,0.16,0.1,0.25,0.1
		c0.14,0,0.3-0.05,0.47-0.18c0.16-0.11,0.33-0.29,0.48-0.52c0.15-0.22,0.3-0.52,0.43-0.87c0.14-0.36,0.25-0.77,0.33-1.24l0.37-2.28
		C197.71,55.61,197.6,55.58,197.46,55.57z"/>
	<path d="M200.13,51.82c0.22-0.08,0.43-0.14,0.64-0.17c0.22-0.04,0.48-0.05,0.76-0.05c0.11,0,0.22,0,0.33,0.01
		c0.1,0.03,0.19,0.04,0.29,0.07l-0.8,6.03h0.01l0.77-0.6c0.14-0.11,0.29-0.26,0.45-0.44c0.15-0.19,0.29-0.4,0.43-0.62
		c0.15-0.21,0.27-0.44,0.37-0.67c0.11-0.23,0.19-0.47,0.25-0.67c0.34,0,0.58,0.04,0.71,0.12c0.14,0.08,0.21,0.19,0.21,0.33
		c0,0.12-0.05,0.29-0.15,0.47c-0.1,0.19-0.23,0.38-0.41,0.58c-0.16,0.21-0.37,0.41-0.59,0.62c-0.23,0.21-0.47,0.38-0.73,0.56
		l-0.59,0.41l1.73,2.65c0.11,0.18,0.25,0.32,0.38,0.44c0.14,0.11,0.3,0.21,0.51,0.3v0.23c-0.12,0.08-0.26,0.14-0.38,0.16
		c-0.12,0.03-0.29,0.04-0.47,0.04c-0.1,0-0.21-0.01-0.3-0.04c-0.1-0.03-0.19-0.08-0.29-0.14c-0.1-0.07-0.19-0.16-0.28-0.27
		c-0.1-0.11-0.18-0.25-0.27-0.41l-1.42-2.61h-0.01l-0.23,3.32h-1.18l0.55-3.59l0.56-5.55l-0.85-0.26V51.82z"/>
	<path d="M208.92,60.27c0.04,0.05,0.05,0.12,0.05,0.21c0,0.17-0.05,0.32-0.15,0.47c-0.11,0.15-0.25,0.28-0.43,0.38
		c-0.18,0.11-0.4,0.19-0.63,0.26c-0.25,0.07-0.51,0.1-0.78,0.1c-0.29,0-0.56-0.04-0.8-0.14c-0.25-0.1-0.44-0.25-0.62-0.44
		c-0.16-0.21-0.3-0.45-0.4-0.76c-0.1-0.29-0.14-0.65-0.14-1.06c0-0.77,0.08-1.44,0.26-2.01c0.18-0.58,0.4-1.04,0.67-1.43
		c0.29-0.37,0.59-0.65,0.93-0.84c0.34-0.18,0.67-0.28,1.02-0.28c0.47,0,0.84,0.11,1.09,0.36c0.25,0.23,0.38,0.59,0.38,1.06
		c0,0.4-0.1,0.77-0.29,1.09c-0.19,0.33-0.44,0.6-0.74,0.82c-0.32,0.23-0.66,0.4-1.06,0.52c-0.38,0.12-0.8,0.18-1.2,0.18
		c0,0.41,0.03,0.76,0.08,1.03c0.05,0.26,0.12,0.47,0.23,0.63c0.11,0.15,0.23,0.26,0.38,0.32c0.15,0.05,0.33,0.08,0.54,0.08
		c0.12,0,0.25-0.01,0.4-0.05c0.14-0.03,0.29-0.07,0.43-0.14c0.14-0.07,0.26-0.14,0.38-0.22c0.11-0.08,0.21-0.18,0.28-0.28
		C208.85,60.17,208.89,60.21,208.92,60.27z M208.09,55.72c-0.11-0.14-0.28-0.21-0.47-0.21c-0.15,0-0.32,0.05-0.5,0.19
		c-0.16,0.12-0.33,0.3-0.47,0.52c-0.15,0.23-0.28,0.51-0.37,0.84c-0.1,0.32-0.14,0.67-0.14,1.07c0.3,0,0.59-0.04,0.85-0.12
		c0.26-0.08,0.48-0.19,0.67-0.34c0.19-0.15,0.33-0.33,0.44-0.55c0.11-0.22,0.15-0.45,0.15-0.72
		C208.27,56.08,208.21,55.86,208.09,55.72z"/>
	<path d="M215.03,56.41c-0.01,0.14-0.04,0.29-0.05,0.44c-0.03,0.15-0.05,0.3-0.07,0.47c-0.03,0.15-0.04,0.3-0.07,0.45l-0.25,1.48
		c-0.01,0.08-0.01,0.16-0.03,0.27c-0.01,0.1-0.03,0.19-0.04,0.3c-0.01,0.11-0.03,0.21-0.03,0.3c-0.01,0.11-0.01,0.19-0.01,0.26
		c0,0.23,0.05,0.4,0.16,0.49c0.11,0.11,0.26,0.18,0.48,0.22v0.23c-0.15,0.08-0.33,0.15-0.51,0.19c-0.18,0.04-0.37,0.07-0.59,0.07
		c-0.22,0-0.38-0.05-0.49-0.16c-0.12-0.11-0.18-0.26-0.18-0.47c0-0.08,0.01-0.19,0.01-0.32c0.01-0.11,0.03-0.25,0.04-0.37
		c0.01-0.14,0.04-0.27,0.05-0.4c0.01-0.14,0.04-0.26,0.05-0.37l0.26-1.58c0.01-0.11,0.03-0.22,0.05-0.34
		c0.01-0.12,0.03-0.25,0.04-0.37c0.01-0.12,0.03-0.25,0.03-0.36c0.01-0.11,0.01-0.22,0.01-0.32c0-0.15-0.01-0.27-0.04-0.38
		c-0.04-0.11-0.08-0.19-0.14-0.26c-0.06-0.05-0.12-0.11-0.19-0.14c-0.07-0.03-0.15-0.04-0.23-0.04c-0.19,0-0.4,0.08-0.62,0.26
		c-0.22,0.18-0.43,0.41-0.6,0.73c-0.19,0.3-0.36,0.67-0.48,1.08c-0.14,0.43-0.21,0.88-0.22,1.36l-0.08,2.32h-1.17l0.69-5.92
		l-0.84-0.26v-0.26c0.22-0.08,0.44-0.14,0.66-0.18c0.21-0.04,0.45-0.06,0.7-0.06c0.1,0,0.18,0.01,0.27,0.03
		c0.1,0.01,0.19,0.03,0.29,0.07l-0.44,2.1h0.01c0.15-0.36,0.33-0.66,0.52-0.94c0.19-0.28,0.38-0.51,0.6-0.7
		c0.21-0.19,0.43-0.33,0.66-0.44c0.22-0.1,0.45-0.15,0.69-0.15c0.15,0,0.3,0.03,0.43,0.08c0.14,0.05,0.25,0.14,0.34,0.23
		c0.1,0.11,0.18,0.25,0.23,0.4c0.05,0.15,0.08,0.34,0.08,0.55C215.04,56.15,215.04,56.27,215.03,56.41z"/>
	<path d="M222.26,60.27c0.04,0.05,0.05,0.12,0.05,0.21c0,0.17-0.05,0.32-0.15,0.47c-0.11,0.15-0.25,0.28-0.43,0.38
		c-0.18,0.11-0.4,0.19-0.63,0.26c-0.25,0.07-0.51,0.1-0.78,0.1c-0.29,0-0.56-0.04-0.8-0.14c-0.25-0.1-0.44-0.25-0.62-0.44
		c-0.16-0.21-0.3-0.45-0.4-0.76c-0.1-0.29-0.14-0.65-0.14-1.06c0-0.77,0.08-1.44,0.26-2.01c0.18-0.58,0.4-1.04,0.67-1.43
		c0.29-0.37,0.59-0.65,0.93-0.84c0.34-0.18,0.67-0.28,1.02-0.28c0.47,0,0.84,0.11,1.09,0.36c0.25,0.23,0.38,0.59,0.38,1.06
		c0,0.4-0.1,0.77-0.29,1.09c-0.19,0.33-0.44,0.6-0.74,0.82c-0.32,0.23-0.66,0.4-1.06,0.52c-0.38,0.12-0.8,0.18-1.2,0.18
		c0,0.41,0.03,0.76,0.08,1.03c0.05,0.26,0.12,0.47,0.23,0.63c0.11,0.15,0.23,0.26,0.38,0.32c0.15,0.05,0.33,0.08,0.54,0.08
		c0.12,0,0.25-0.01,0.4-0.05c0.14-0.03,0.29-0.07,0.43-0.14c0.14-0.07,0.26-0.14,0.38-0.22c0.11-0.08,0.21-0.18,0.28-0.28
		C222.19,60.17,222.23,60.21,222.26,60.27z M221.44,55.72c-0.11-0.14-0.28-0.21-0.47-0.21c-0.15,0-0.32,0.05-0.5,0.19
		c-0.16,0.12-0.33,0.3-0.47,0.52c-0.15,0.23-0.28,0.51-0.37,0.84c-0.1,0.32-0.14,0.67-0.14,1.07c0.3,0,0.59-0.04,0.85-0.12
		c0.26-0.08,0.48-0.19,0.67-0.34c0.19-0.15,0.33-0.33,0.44-0.55c0.11-0.22,0.15-0.45,0.15-0.72
		C221.62,56.08,221.56,55.86,221.44,55.72z"/>
	<path d="M228.37,56.41c-0.01,0.14-0.04,0.29-0.05,0.44c-0.03,0.15-0.05,0.3-0.07,0.47c-0.03,0.15-0.04,0.3-0.07,0.45l-0.25,1.48
		c-0.01,0.08-0.01,0.16-0.03,0.27c-0.01,0.1-0.03,0.19-0.04,0.3c-0.01,0.11-0.03,0.21-0.03,0.3c-0.01,0.11-0.01,0.19-0.01,0.26
		c0,0.23,0.05,0.4,0.16,0.49c0.11,0.11,0.26,0.18,0.48,0.22v0.23c-0.15,0.08-0.33,0.15-0.51,0.19c-0.18,0.04-0.37,0.07-0.59,0.07
		c-0.22,0-0.38-0.05-0.49-0.16c-0.12-0.11-0.18-0.26-0.18-0.47c0-0.08,0.01-0.19,0.01-0.32c0.01-0.11,0.03-0.25,0.04-0.37
		c0.01-0.14,0.04-0.27,0.05-0.4c0.01-0.14,0.04-0.26,0.05-0.37l0.26-1.58c0.01-0.11,0.03-0.22,0.05-0.34
		c0.01-0.12,0.03-0.25,0.04-0.37c0.01-0.12,0.03-0.25,0.03-0.36c0.01-0.11,0.01-0.22,0.01-0.32c0-0.15-0.01-0.27-0.04-0.38
		c-0.04-0.11-0.08-0.19-0.14-0.26c-0.06-0.05-0.12-0.11-0.19-0.14c-0.07-0.03-0.15-0.04-0.23-0.04c-0.19,0-0.4,0.08-0.62,0.26
		c-0.22,0.18-0.43,0.41-0.6,0.73c-0.19,0.3-0.36,0.67-0.48,1.08c-0.14,0.43-0.21,0.88-0.22,1.36l-0.08,2.32h-1.17l0.69-5.92
		l-0.84-0.26v-0.26c0.22-0.08,0.44-0.14,0.66-0.18c0.21-0.04,0.45-0.06,0.7-0.06c0.1,0,0.18,0.01,0.27,0.03
		c0.1,0.01,0.19,0.03,0.29,0.07l-0.44,2.1h0.01c0.15-0.36,0.33-0.66,0.52-0.94c0.19-0.28,0.38-0.51,0.6-0.7
		c0.21-0.19,0.43-0.33,0.66-0.44c0.22-0.1,0.45-0.15,0.69-0.15c0.15,0,0.3,0.03,0.43,0.08c0.14,0.05,0.25,0.14,0.34,0.23
		c0.1,0.11,0.18,0.25,0.23,0.4c0.05,0.15,0.08,0.34,0.08,0.55C228.39,56.15,228.39,56.27,228.37,56.41z"/>
	<path d="M54.65,68.66v-0.28c0.21-0.07,0.41-0.12,0.6-0.16c0.19-0.03,0.41-0.04,0.66-0.04c0.21,0,0.4,0.01,0.58,0.03
		c0.18,0.03,0.34,0.07,0.49,0.11v0.23c-0.14,0.04-0.25,0.12-0.34,0.22c-0.1,0.11-0.15,0.23-0.17,0.37l-0.85,7.27l0.77,0.22v0.28
		c-0.21,0.07-0.4,0.12-0.59,0.15c-0.19,0.04-0.41,0.05-0.66,0.05c-0.21,0-0.4-0.01-0.59-0.04c-0.19-0.03-0.36-0.05-0.49-0.1v-0.23
		c0.12-0.05,0.23-0.12,0.34-0.23c0.11-0.11,0.17-0.23,0.18-0.37l0.84-7.25L54.65,68.66z M60.17,77c-0.08,0.03-0.15,0.07-0.23,0.08
		c-0.08,0.03-0.16,0.04-0.25,0.05c-0.08,0.01-0.18,0.01-0.29,0.01c-0.12,0-0.26-0.03-0.38-0.07c-0.12-0.05-0.25-0.14-0.38-0.28
		c-0.14-0.14-0.27-0.32-0.44-0.55c-0.15-0.25-0.33-0.55-0.52-0.92l-1.44-2.77l0.01-0.07l1.24-1.1c0.52-0.47,0.92-0.91,1.17-1.3
		c0.25-0.38,0.37-0.73,0.37-1c0-0.14-0.03-0.25-0.11-0.33c-0.07-0.08-0.19-0.15-0.38-0.21v-0.21c0.15-0.07,0.32-0.12,0.47-0.15
		c0.15-0.04,0.32-0.05,0.48-0.05c0.21,0,0.36,0.05,0.48,0.15c0.12,0.11,0.19,0.26,0.19,0.45c0,0.41-0.15,0.85-0.45,1.32
		c-0.29,0.47-0.74,0.98-1.36,1.5l-1,0.85l1.32,2.39c0.17,0.3,0.34,0.56,0.49,0.78c0.17,0.22,0.32,0.4,0.47,0.54
		c0.14,0.14,0.29,0.23,0.41,0.3c0.14,0.07,0.26,0.11,0.38,0.14v0.29C60.32,76.9,60.24,76.96,60.17,77z"/>
	<path d="M65.5,74.5c-0.18,0.58-0.41,1.06-0.7,1.46c-0.27,0.4-0.59,0.7-0.95,0.91c-0.34,0.22-0.69,0.32-1.03,0.32
		c-0.26,0-0.52-0.05-0.76-0.15c-0.25-0.11-0.45-0.26-0.63-0.45c-0.18-0.21-0.32-0.47-0.41-0.77c-0.11-0.3-0.17-0.66-0.17-1.07
		c0-0.73,0.08-1.36,0.26-1.92c0.16-0.55,0.4-1.03,0.67-1.4c0.29-0.38,0.6-0.67,0.96-0.87c0.37-0.19,0.73-0.29,1.11-0.29
		c0.27,0,0.54,0.04,0.77,0.14c0.23,0.08,0.44,0.23,0.6,0.43c0.17,0.18,0.3,0.43,0.4,0.71c0.1,0.29,0.14,0.62,0.14,1.02
		C65.77,73.28,65.68,73.92,65.5,74.5z M64.56,72.03c-0.05-0.22-0.12-0.41-0.22-0.55c-0.1-0.15-0.21-0.25-0.33-0.33
		c-0.14-0.07-0.27-0.1-0.43-0.1c-0.19,0-0.37,0.07-0.56,0.22c-0.21,0.17-0.37,0.37-0.54,0.66c-0.17,0.27-0.29,0.6-0.4,1
		c-0.1,0.4-0.15,0.84-0.15,1.32c0,0.38,0.03,0.73,0.1,1c0.06,0.26,0.14,0.49,0.25,0.66c0.1,0.18,0.22,0.3,0.36,0.37
		c0.14,0.08,0.27,0.12,0.43,0.12c0.16,0,0.34-0.07,0.52-0.22c0.19-0.14,0.36-0.36,0.51-0.66c0.16-0.29,0.29-0.67,0.4-1.11
		c0.1-0.45,0.15-0.99,0.15-1.59C64.65,72.52,64.62,72.25,64.56,72.03z"/>
	<path d="M71.71,71.93c-0.01,0.14-0.04,0.29-0.05,0.44c-0.03,0.15-0.06,0.3-0.07,0.47c-0.03,0.15-0.04,0.3-0.07,0.45l-0.25,1.48
		c-0.01,0.08-0.01,0.17-0.03,0.28c-0.01,0.1-0.03,0.19-0.04,0.3c-0.01,0.11-0.03,0.21-0.03,0.3c-0.01,0.11-0.01,0.19-0.01,0.26
		c0,0.23,0.06,0.4,0.16,0.49c0.11,0.11,0.26,0.18,0.48,0.22v0.23c-0.15,0.08-0.33,0.15-0.51,0.19s-0.37,0.07-0.59,0.07
		c-0.22,0-0.38-0.05-0.49-0.16c-0.12-0.11-0.18-0.26-0.18-0.47c0-0.08,0.01-0.19,0.01-0.32c0.01-0.11,0.03-0.25,0.04-0.37
		c0.01-0.14,0.04-0.28,0.05-0.4c0.01-0.14,0.04-0.26,0.05-0.37l0.26-1.58c0.01-0.11,0.03-0.22,0.05-0.34
		c0.01-0.12,0.03-0.25,0.04-0.37c0.01-0.12,0.03-0.25,0.03-0.36c0.01-0.11,0.01-0.22,0.01-0.32c0-0.15-0.01-0.28-0.04-0.38
		c-0.04-0.11-0.08-0.19-0.14-0.26c-0.05-0.05-0.12-0.11-0.19-0.14c-0.07-0.03-0.15-0.04-0.23-0.04c-0.19,0-0.4,0.08-0.62,0.26
		c-0.22,0.18-0.43,0.41-0.6,0.73c-0.19,0.3-0.36,0.67-0.48,1.09c-0.14,0.43-0.21,0.88-0.22,1.36L67.98,77h-1.17l0.69-5.92
		l-0.84-0.26v-0.26c0.22-0.08,0.44-0.14,0.66-0.18c0.21-0.04,0.45-0.05,0.7-0.05c0.1,0,0.18,0.01,0.27,0.03
		c0.1,0.01,0.19,0.03,0.29,0.07l-0.44,2.1h0.01c0.15-0.36,0.33-0.66,0.52-0.93c0.19-0.27,0.38-0.51,0.6-0.7
		c0.21-0.19,0.43-0.33,0.66-0.44c0.22-0.1,0.45-0.15,0.69-0.15c0.15,0,0.3,0.03,0.43,0.08c0.14,0.06,0.25,0.14,0.34,0.23
		c0.1,0.11,0.18,0.25,0.23,0.4c0.05,0.15,0.08,0.34,0.08,0.55C71.72,71.67,71.72,71.79,71.71,71.93z"/>
	<path d="M73.26,76.96c-0.11-0.11-0.16-0.26-0.16-0.47c0-0.1,0-0.22,0.01-0.37c0.01-0.15,0.03-0.3,0.05-0.47
		c0.01-0.18,0.04-0.34,0.07-0.51c0.01-0.18,0.03-0.33,0.05-0.47l0.44-2.79l0.07-0.81l-0.82-0.26v-0.26
		c0.22-0.08,0.44-0.14,0.67-0.18c0.22-0.04,0.45-0.05,0.7-0.05c0.12,0,0.23,0,0.33,0.01c0.11,0.01,0.19,0.03,0.29,0.07l-0.62,4.04
		c-0.01,0.1-0.03,0.22-0.04,0.36c-0.01,0.14-0.03,0.26-0.04,0.4c0,0.14-0.01,0.26-0.03,0.38c0,0.14,0,0.23,0,0.33
		c0,0.23,0.04,0.4,0.12,0.51c0.1,0.12,0.23,0.21,0.43,0.28v0.23c-0.15,0.07-0.3,0.11-0.47,0.14c-0.16,0.04-0.36,0.05-0.56,0.05
		C73.54,77.12,73.37,77.07,73.26,76.96z M75.28,68.47c-0.04,0.11-0.1,0.19-0.16,0.27c-0.07,0.07-0.15,0.14-0.25,0.18
		c-0.1,0.04-0.19,0.07-0.29,0.07c-0.19,0-0.34-0.06-0.45-0.18c-0.12-0.11-0.18-0.27-0.18-0.48c0-0.11,0.01-0.22,0.05-0.33
		c0.06-0.1,0.11-0.19,0.18-0.26c0.07-0.08,0.15-0.14,0.23-0.19c0.1-0.04,0.19-0.07,0.3-0.07c0.18,0,0.33,0.07,0.45,0.19
		c0.11,0.12,0.18,0.27,0.18,0.47C75.35,68.25,75.32,68.37,75.28,68.47z"/>
	<path d="M81.04,71.93c-0.01,0.14-0.04,0.29-0.05,0.44c-0.03,0.15-0.06,0.3-0.07,0.47c-0.03,0.15-0.04,0.3-0.07,0.45l-0.25,1.48
		c-0.01,0.08-0.01,0.17-0.03,0.28c-0.01,0.1-0.03,0.19-0.04,0.3c-0.01,0.11-0.03,0.21-0.03,0.3c-0.01,0.11-0.01,0.19-0.01,0.26
		c0,0.23,0.06,0.4,0.17,0.49c0.11,0.11,0.26,0.18,0.48,0.22v0.23c-0.15,0.08-0.33,0.15-0.51,0.19c-0.18,0.04-0.37,0.07-0.59,0.07
		c-0.22,0-0.38-0.05-0.49-0.16c-0.12-0.11-0.18-0.26-0.18-0.47c0-0.08,0.01-0.19,0.01-0.32c0.01-0.11,0.03-0.25,0.04-0.37
		c0.01-0.14,0.04-0.28,0.05-0.4c0.01-0.14,0.04-0.26,0.05-0.37l0.26-1.58c0.01-0.11,0.03-0.22,0.05-0.34
		c0.01-0.12,0.03-0.25,0.04-0.37c0.01-0.12,0.03-0.25,0.03-0.36c0.01-0.11,0.01-0.22,0.01-0.32c0-0.15-0.01-0.28-0.04-0.38
		c-0.04-0.11-0.08-0.19-0.14-0.26c-0.05-0.05-0.12-0.11-0.19-0.14c-0.07-0.03-0.15-0.04-0.23-0.04c-0.19,0-0.4,0.08-0.62,0.26
		c-0.22,0.18-0.43,0.41-0.6,0.73c-0.19,0.3-0.36,0.67-0.48,1.09c-0.14,0.43-0.21,0.88-0.22,1.36L77.32,77h-1.17l0.69-5.92L76,70.82
		v-0.26c0.22-0.08,0.44-0.14,0.66-0.18c0.21-0.04,0.45-0.05,0.7-0.05c0.1,0,0.18,0.01,0.27,0.03c0.1,0.01,0.19,0.03,0.29,0.07
		l-0.44,2.1h0.01c0.15-0.36,0.33-0.66,0.52-0.93c0.19-0.27,0.38-0.51,0.6-0.7c0.21-0.19,0.43-0.33,0.66-0.44
		c0.22-0.1,0.45-0.15,0.69-0.15c0.15,0,0.3,0.03,0.43,0.08c0.14,0.06,0.25,0.14,0.34,0.23c0.1,0.11,0.18,0.25,0.23,0.4
		c0.05,0.15,0.08,0.34,0.08,0.55C81.06,71.67,81.06,71.79,81.04,71.93z"/>
	<path d="M82.52,67.34c0.22-0.08,0.43-0.14,0.65-0.17c0.22-0.04,0.48-0.05,0.76-0.05c0.11,0,0.22,0,0.33,0.01
		c0.1,0.03,0.19,0.04,0.29,0.07l-0.8,6.03h0.01l0.77-0.6c0.14-0.11,0.29-0.26,0.45-0.44c0.15-0.19,0.29-0.4,0.43-0.62
		c0.15-0.21,0.28-0.44,0.37-0.67c0.11-0.23,0.19-0.47,0.25-0.67c0.34,0,0.58,0.04,0.71,0.12c0.14,0.08,0.21,0.19,0.21,0.33
		c0,0.12-0.05,0.29-0.15,0.47c-0.1,0.19-0.23,0.38-0.41,0.58c-0.16,0.21-0.37,0.41-0.59,0.62c-0.23,0.21-0.47,0.38-0.73,0.56
		l-0.59,0.41l1.73,2.65c0.11,0.18,0.25,0.32,0.38,0.44c0.14,0.11,0.3,0.21,0.51,0.3v0.23c-0.12,0.08-0.26,0.14-0.38,0.16
		c-0.12,0.03-0.29,0.04-0.47,0.04c-0.1,0-0.21-0.01-0.3-0.04c-0.1-0.03-0.19-0.08-0.29-0.14c-0.1-0.07-0.19-0.16-0.28-0.27
		c-0.1-0.11-0.18-0.25-0.27-0.41l-1.42-2.61h-0.01L83.44,77h-1.18l0.55-3.59l0.56-5.55l-0.85-0.26V67.34z"/>
	<path d="M87.45,70.56c0.22-0.08,0.44-0.14,0.65-0.18c0.22-0.04,0.45-0.05,0.69-0.05c0.1,0,0.19,0.01,0.29,0.03
		c0.11,0.01,0.21,0.03,0.29,0.07l-0.41,1.99h0.01l0.73-1.21c0.18-0.29,0.37-0.51,0.55-0.64c0.19-0.15,0.4-0.22,0.6-0.22
		c0.15,0,0.26,0.04,0.34,0.14c0.07,0.08,0.11,0.21,0.11,0.37c0,0.11-0.01,0.23-0.04,0.36c-0.03,0.12-0.06,0.25-0.11,0.36
		c-0.07-0.03-0.14-0.04-0.21-0.04c-0.07-0.01-0.15-0.01-0.22-0.01c-0.22,0-0.43,0.07-0.65,0.19c-0.21,0.12-0.4,0.33-0.56,0.61
		c-0.16,0.27-0.32,0.63-0.43,1.07c-0.11,0.45-0.18,0.99-0.22,1.62L88.76,77h-1.14l0.67-5.92l-0.84-0.26V70.56z"/>
	<path d="M91.87,76.96c-0.11-0.11-0.17-0.26-0.17-0.47c0-0.1,0-0.22,0.01-0.37c0.01-0.15,0.03-0.3,0.05-0.47
		c0.01-0.18,0.04-0.34,0.07-0.51c0.01-0.18,0.03-0.33,0.05-0.47l0.44-2.79l0.07-0.81l-0.82-0.26v-0.26
		c0.22-0.08,0.44-0.14,0.67-0.18c0.22-0.04,0.45-0.05,0.7-0.05c0.12,0,0.23,0,0.33,0.01c0.11,0.01,0.19,0.03,0.29,0.07l-0.62,4.04
		c-0.01,0.1-0.03,0.22-0.04,0.36c-0.01,0.14-0.03,0.26-0.04,0.4c0,0.14-0.01,0.26-0.03,0.38c0,0.14,0,0.23,0,0.33
		c0,0.23,0.04,0.4,0.12,0.51c0.1,0.12,0.23,0.21,0.43,0.28v0.23c-0.15,0.07-0.3,0.11-0.47,0.14c-0.16,0.04-0.36,0.05-0.56,0.05
		C92.15,77.12,91.98,77.07,91.87,76.96z M93.89,68.47c-0.04,0.11-0.1,0.19-0.17,0.27c-0.07,0.07-0.15,0.14-0.25,0.18
		c-0.1,0.04-0.19,0.07-0.29,0.07c-0.19,0-0.34-0.06-0.45-0.18c-0.12-0.11-0.18-0.27-0.18-0.48c0-0.11,0.01-0.22,0.05-0.33
		c0.06-0.1,0.11-0.19,0.18-0.26c0.07-0.08,0.15-0.14,0.23-0.19c0.1-0.04,0.19-0.07,0.3-0.07c0.18,0,0.33,0.07,0.45,0.19
		c0.11,0.12,0.18,0.27,0.18,0.47C93.96,68.25,93.93,68.37,93.89,68.47z"/>
	<path d="M95.36,79c-0.11,0.33-0.26,0.6-0.43,0.81c-0.16,0.21-0.36,0.34-0.56,0.44c-0.21,0.1-0.41,0.14-0.65,0.14
		c-0.18,0-0.36-0.03-0.54-0.1c-0.18-0.08-0.32-0.17-0.41-0.28v-0.25c0.23,0,0.44-0.03,0.65-0.1c0.19-0.07,0.37-0.18,0.54-0.33
		c0.15-0.15,0.29-0.34,0.4-0.59c0.11-0.25,0.18-0.54,0.22-0.88l0.76-5.98l0.04-0.82l-0.84-0.26v-0.26c0.22-0.08,0.44-0.14,0.67-0.18
		c0.22-0.04,0.45-0.05,0.69-0.05c0.23,0,0.44,0.03,0.62,0.08l-0.88,7.42C95.58,78.29,95.49,78.69,95.36,79z M96.83,68.47
		c-0.04,0.11-0.1,0.19-0.17,0.27c-0.07,0.07-0.15,0.14-0.25,0.18c-0.1,0.04-0.19,0.07-0.29,0.07c-0.19,0-0.34-0.06-0.45-0.18
		c-0.12-0.11-0.18-0.27-0.18-0.48c0-0.11,0.01-0.22,0.05-0.33c0.04-0.1,0.1-0.19,0.18-0.26c0.07-0.08,0.15-0.14,0.25-0.19
		c0.08-0.04,0.19-0.07,0.29-0.07c0.08,0,0.16,0.01,0.25,0.05c0.07,0.03,0.14,0.08,0.19,0.14c0.07,0.05,0.11,0.12,0.14,0.21
		c0.04,0.08,0.05,0.17,0.05,0.26C96.9,68.25,96.87,68.37,96.83,68.47z"/>
	<path d="M97.78,67.34c0.22-0.08,0.43-0.14,0.65-0.17c0.22-0.04,0.48-0.05,0.76-0.05c0.11,0,0.22,0,0.33,0.01
		c0.1,0.03,0.19,0.04,0.29,0.07L99,73.23h0.01l0.77-0.6c0.14-0.11,0.29-0.26,0.45-0.44c0.15-0.19,0.29-0.4,0.43-0.62
		c0.15-0.21,0.28-0.44,0.37-0.67c0.11-0.23,0.19-0.47,0.25-0.67c0.34,0,0.58,0.04,0.71,0.12c0.14,0.08,0.21,0.19,0.21,0.33
		c0,0.12-0.05,0.29-0.15,0.47c-0.1,0.19-0.23,0.38-0.41,0.58c-0.16,0.21-0.37,0.41-0.59,0.62c-0.23,0.21-0.47,0.38-0.73,0.56
		l-0.59,0.41l1.73,2.65c0.11,0.18,0.25,0.32,0.38,0.44c0.14,0.11,0.3,0.21,0.51,0.3v0.23c-0.12,0.08-0.26,0.14-0.38,0.16
		c-0.12,0.03-0.29,0.04-0.47,0.04c-0.1,0-0.21-0.01-0.3-0.04c-0.1-0.03-0.19-0.08-0.29-0.14c-0.1-0.07-0.19-0.16-0.28-0.27
		c-0.1-0.11-0.18-0.25-0.27-0.41l-1.42-2.61h-0.01L98.7,77h-1.18l0.55-3.59l0.56-5.55l-0.85-0.26V67.34z"/>
	<path d="M106.6,71.41c-0.06,0.14-0.11,0.25-0.18,0.33c-0.21-0.21-0.44-0.37-0.71-0.49c-0.26-0.12-0.54-0.18-0.78-0.18
		c-0.32,0-0.54,0.07-0.7,0.22c-0.15,0.14-0.23,0.33-0.23,0.55c0,0.1,0.01,0.19,0.04,0.28c0.03,0.08,0.07,0.18,0.12,0.26
		c0.07,0.1,0.15,0.19,0.26,0.32c0.12,0.11,0.26,0.25,0.43,0.4l0.52,0.47c0.17,0.15,0.3,0.29,0.43,0.41
		c0.11,0.12,0.19,0.26,0.26,0.38c0.07,0.12,0.12,0.25,0.15,0.37c0.03,0.14,0.04,0.28,0.04,0.43c0,0.27-0.05,0.52-0.19,0.77
		c-0.12,0.25-0.3,0.47-0.54,0.66c-0.23,0.18-0.49,0.33-0.81,0.44c-0.3,0.11-0.63,0.16-1,0.16c-0.43,0-0.74-0.07-0.95-0.19
		c-0.19-0.14-0.3-0.33-0.3-0.59c0-0.12,0.03-0.23,0.07-0.32c0.03-0.1,0.08-0.18,0.15-0.26c0.19,0.19,0.4,0.33,0.62,0.43
		c0.22,0.1,0.47,0.15,0.71,0.15c0.17,0,0.32-0.03,0.45-0.07c0.15-0.04,0.27-0.11,0.38-0.19c0.11-0.08,0.19-0.18,0.25-0.29
		c0.05-0.12,0.1-0.25,0.1-0.4c0-0.11-0.01-0.22-0.04-0.32c-0.03-0.1-0.07-0.21-0.14-0.3c-0.07-0.11-0.15-0.22-0.26-0.33
		c-0.11-0.12-0.25-0.26-0.41-0.41l-0.5-0.44c-0.15-0.15-0.27-0.27-0.38-0.4c-0.11-0.12-0.19-0.25-0.25-0.37
		c-0.07-0.12-0.11-0.25-0.14-0.37c-0.03-0.12-0.04-0.26-0.04-0.41c0-0.23,0.06-0.45,0.17-0.67c0.1-0.21,0.25-0.4,0.43-0.58
		c0.19-0.16,0.41-0.3,0.67-0.41c0.26-0.1,0.56-0.15,0.88-0.15c0.49,0,0.87,0.07,1.11,0.21c0.26,0.14,0.38,0.32,0.38,0.54
		C106.67,71.15,106.64,71.27,106.6,71.41z"/>
	<path d="M107.27,70.56c0.22-0.08,0.44-0.14,0.65-0.18c0.22-0.04,0.45-0.05,0.69-0.05c0.1,0,0.19,0.01,0.29,0.03
		c0.11,0.01,0.21,0.03,0.29,0.07l-0.41,1.99h0.01l0.73-1.21c0.18-0.29,0.37-0.51,0.55-0.64c0.19-0.15,0.4-0.22,0.6-0.22
		c0.15,0,0.26,0.04,0.34,0.14c0.07,0.08,0.11,0.21,0.11,0.37c0,0.11-0.01,0.23-0.04,0.36c-0.03,0.12-0.05,0.25-0.11,0.36
		c-0.07-0.03-0.14-0.04-0.21-0.04c-0.07-0.01-0.15-0.01-0.22-0.01c-0.22,0-0.43,0.07-0.65,0.19c-0.21,0.12-0.4,0.33-0.56,0.61
		c-0.16,0.27-0.32,0.63-0.43,1.07c-0.11,0.45-0.18,0.99-0.22,1.62L108.58,77h-1.14l0.67-5.92l-0.84-0.26V70.56z"/>
	<path d="M115.09,75.79c0.04,0.05,0.05,0.12,0.05,0.21c0,0.16-0.05,0.32-0.15,0.47c-0.11,0.15-0.25,0.27-0.43,0.38
		c-0.18,0.11-0.4,0.19-0.63,0.26c-0.25,0.07-0.51,0.1-0.78,0.1c-0.29,0-0.56-0.04-0.8-0.14c-0.25-0.1-0.44-0.25-0.62-0.44
		c-0.17-0.21-0.3-0.45-0.4-0.76c-0.1-0.29-0.14-0.65-0.14-1.06c0-0.77,0.08-1.44,0.26-2.01c0.18-0.58,0.4-1.04,0.67-1.43
		c0.29-0.37,0.59-0.64,0.93-0.84c0.34-0.18,0.67-0.28,1.02-0.28c0.47,0,0.84,0.11,1.08,0.36c0.25,0.23,0.38,0.59,0.38,1.06
		c0,0.4-0.1,0.77-0.29,1.08c-0.19,0.33-0.44,0.61-0.74,0.82c-0.32,0.23-0.66,0.4-1.06,0.52c-0.38,0.12-0.8,0.18-1.2,0.18
		c0,0.41,0.03,0.76,0.08,1.03c0.05,0.26,0.12,0.47,0.23,0.63c0.11,0.15,0.23,0.26,0.38,0.32c0.15,0.05,0.33,0.08,0.54,0.08
		c0.12,0,0.25-0.01,0.4-0.05c0.14-0.03,0.29-0.07,0.43-0.14c0.14-0.07,0.26-0.14,0.38-0.22c0.11-0.08,0.21-0.18,0.27-0.28
		C115.02,75.69,115.06,75.73,115.09,75.79z M114.26,71.24c-0.11-0.14-0.27-0.21-0.47-0.21c-0.15,0-0.32,0.05-0.49,0.19
		c-0.17,0.12-0.33,0.3-0.47,0.52c-0.15,0.23-0.27,0.51-0.37,0.84c-0.1,0.32-0.14,0.67-0.14,1.07c0.3,0,0.59-0.04,0.85-0.12
		c0.26-0.08,0.48-0.19,0.67-0.34c0.19-0.15,0.33-0.33,0.44-0.55c0.11-0.22,0.15-0.45,0.15-0.71
		C114.44,71.6,114.38,71.38,114.26,71.24z"/>
	<path d="M116.53,76.96c-0.12-0.11-0.18-0.28-0.18-0.48c0-0.1,0.01-0.22,0.01-0.37c0.01-0.15,0.03-0.32,0.04-0.48
		c0.01-0.17,0.04-0.33,0.05-0.49c0.01-0.18,0.04-0.33,0.05-0.45l0.96-6.81l-0.87-0.26v-0.26c0.22-0.08,0.44-0.14,0.66-0.17
		c0.21-0.04,0.45-0.05,0.71-0.05c0.11,0,0.23,0,0.34,0.01c0.11,0.03,0.21,0.04,0.29,0.07l-1.03,7.2c-0.01,0.11-0.03,0.23-0.04,0.36
		c-0.01,0.14-0.03,0.27-0.04,0.41c0,0.12-0.01,0.26-0.01,0.4c-0.01,0.12-0.01,0.23-0.01,0.34c0,0.23,0.06,0.4,0.17,0.51
		c0.1,0.12,0.26,0.21,0.45,0.28v0.23c-0.3,0.12-0.65,0.19-1.06,0.19C116.8,77.12,116.64,77.07,116.53,76.96z"/>
	<path d="M123.56,73.55c-0.04,0.23-0.07,0.48-0.1,0.71c-0.03,0.25-0.05,0.48-0.07,0.7c-0.01,0.22-0.03,0.4-0.03,0.55
		c0,0.22,0.01,0.4,0.03,0.54c0.03,0.14,0.07,0.25,0.11,0.33c0.05,0.07,0.12,0.14,0.21,0.16c0.08,0.04,0.19,0.07,0.32,0.08v0.29
		c-0.18,0.07-0.38,0.11-0.59,0.15c-0.21,0.03-0.43,0.05-0.63,0.05c-0.11,0-0.22-0.01-0.3-0.03c-0.1-0.01-0.19-0.04-0.27-0.07
		l0.32-2.05h-0.01c-0.14,0.34-0.29,0.65-0.45,0.92c-0.18,0.27-0.36,0.51-0.55,0.7c-0.18,0.19-0.37,0.33-0.56,0.44
		c-0.19,0.1-0.38,0.15-0.58,0.15c-0.15,0-0.32-0.05-0.45-0.15c-0.15-0.11-0.29-0.26-0.41-0.47c-0.11-0.21-0.21-0.45-0.27-0.76
		c-0.07-0.3-0.1-0.65-0.1-1.04c0-0.71,0.08-1.33,0.27-1.89c0.19-0.55,0.44-1.02,0.77-1.4c0.32-0.38,0.69-0.67,1.1-0.87
		c0.43-0.21,0.87-0.3,1.35-0.3c0.11,0,0.22,0.01,0.36,0.01c0.12,0.01,0.26,0.03,0.4,0.05c0.12,0.01,0.26,0.04,0.4,0.07
		c0.12,0.01,0.25,0.05,0.36,0.08l-0.47,2.4C123.64,73.11,123.6,73.32,123.56,73.55z M122.62,71.09c-0.14-0.01-0.26-0.01-0.36-0.01
		c-0.29,0-0.55,0.07-0.8,0.22c-0.25,0.14-0.47,0.36-0.66,0.66c-0.18,0.29-0.33,0.66-0.45,1.09c-0.11,0.44-0.16,0.96-0.16,1.54
		c0,0.29,0.03,0.55,0.07,0.76c0.04,0.21,0.1,0.38,0.15,0.52c0.07,0.12,0.15,0.22,0.23,0.29c0.08,0.07,0.17,0.1,0.25,0.1
		c0.14,0,0.3-0.05,0.47-0.18c0.16-0.11,0.33-0.29,0.48-0.52c0.15-0.22,0.3-0.52,0.43-0.87c0.14-0.36,0.25-0.77,0.33-1.24l0.37-2.28
		C122.87,71.13,122.76,71.11,122.62,71.09z"/>
	<path d="M128.14,71.06c-0.18,0.14-0.48,0.21-0.92,0.21h-0.38l-0.23,1.43c-0.03,0.17-0.05,0.36-0.1,0.56
		c-0.03,0.22-0.05,0.43-0.08,0.64c-0.03,0.22-0.06,0.44-0.07,0.63c-0.03,0.21-0.03,0.37-0.03,0.51c0,0.23,0.03,0.43,0.08,0.59
		c0.05,0.16,0.12,0.29,0.22,0.4c0.1,0.11,0.21,0.19,0.33,0.25c0.14,0.04,0.27,0.07,0.43,0.07c0.11,0,0.21,0,0.29-0.03
		c0.08-0.01,0.17-0.04,0.27-0.07v0.25c-0.03,0.08-0.08,0.16-0.15,0.23c-0.08,0.08-0.18,0.17-0.29,0.22
		c-0.1,0.07-0.23,0.11-0.37,0.15c-0.14,0.04-0.29,0.05-0.45,0.05c-0.45,0-0.81-0.14-1.04-0.44c-0.22-0.29-0.34-0.7-0.34-1.25
		c0-0.21,0.01-0.45,0.04-0.73c0.03-0.28,0.06-0.56,0.1-0.87c0.03-0.29,0.08-0.59,0.12-0.89c0.06-0.3,0.11-0.59,0.17-0.85l0.18-0.88
		c-0.15,0-0.29,0-0.4-0.01c-0.1,0-0.23-0.01-0.37-0.03v-0.18c0.22-0.32,0.49-0.6,0.82-0.89c0.32-0.29,0.66-0.55,1.03-0.76h0.21
		l-0.23,1.13h0.4c0.19,0,0.37-0.01,0.54-0.03c0.16-0.01,0.33-0.03,0.52-0.07C128.42,70.71,128.34,70.93,128.14,71.06z"/>
	<path d="M129.11,76.96c-0.11-0.11-0.16-0.26-0.16-0.47c0-0.1,0-0.22,0.01-0.37c0.01-0.15,0.03-0.3,0.05-0.47
		c0.01-0.18,0.04-0.34,0.07-0.51c0.01-0.18,0.03-0.33,0.05-0.47l0.44-2.79l0.07-0.81l-0.82-0.26v-0.26
		c0.22-0.08,0.44-0.14,0.67-0.18c0.22-0.04,0.45-0.05,0.7-0.05c0.12,0,0.23,0,0.33,0.01c0.11,0.01,0.19,0.03,0.29,0.07l-0.62,4.04
		c-0.01,0.1-0.03,0.22-0.04,0.36c-0.01,0.14-0.03,0.26-0.04,0.4c0,0.14-0.01,0.26-0.03,0.38c0,0.14,0,0.23,0,0.33
		c0,0.23,0.04,0.4,0.12,0.51c0.1,0.12,0.23,0.21,0.42,0.28v0.23c-0.15,0.07-0.3,0.11-0.47,0.14c-0.16,0.04-0.36,0.05-0.56,0.05
		C129.38,77.12,129.22,77.07,129.11,76.96z M131.13,68.47c-0.04,0.11-0.1,0.19-0.16,0.27c-0.07,0.07-0.15,0.14-0.25,0.18
		c-0.1,0.04-0.19,0.07-0.29,0.07c-0.19,0-0.34-0.06-0.45-0.18c-0.12-0.11-0.18-0.27-0.18-0.48c0-0.11,0.01-0.22,0.05-0.33
		c0.05-0.1,0.11-0.19,0.18-0.26c0.07-0.08,0.15-0.14,0.23-0.19c0.1-0.04,0.19-0.07,0.3-0.07c0.18,0,0.33,0.07,0.45,0.19
		c0.11,0.12,0.18,0.27,0.18,0.47C131.2,68.25,131.17,68.37,131.13,68.47z"/>
	<path d="M135.66,75.79c0.04,0.05,0.05,0.12,0.05,0.21c0,0.16-0.05,0.32-0.15,0.47c-0.11,0.15-0.25,0.27-0.42,0.38
		c-0.18,0.11-0.4,0.19-0.63,0.26c-0.25,0.07-0.51,0.1-0.78,0.1c-0.29,0-0.56-0.04-0.8-0.14c-0.25-0.1-0.44-0.25-0.62-0.44
		c-0.16-0.21-0.3-0.45-0.4-0.76c-0.1-0.29-0.14-0.65-0.14-1.06c0-0.77,0.08-1.44,0.26-2.01c0.18-0.58,0.4-1.04,0.67-1.43
		c0.29-0.37,0.59-0.64,0.93-0.84c0.34-0.18,0.67-0.28,1.02-0.28c0.47,0,0.84,0.11,1.09,0.36c0.25,0.23,0.38,0.59,0.38,1.06
		c0,0.4-0.1,0.77-0.29,1.08c-0.19,0.33-0.44,0.61-0.74,0.82c-0.32,0.23-0.66,0.4-1.06,0.52c-0.38,0.12-0.8,0.18-1.2,0.18
		c0,0.41,0.03,0.76,0.08,1.03c0.06,0.26,0.12,0.47,0.23,0.63c0.11,0.15,0.23,0.26,0.38,0.32c0.15,0.05,0.33,0.08,0.54,0.08
		c0.12,0,0.25-0.01,0.4-0.05c0.14-0.03,0.29-0.07,0.43-0.14c0.14-0.07,0.26-0.14,0.38-0.22c0.11-0.08,0.21-0.18,0.27-0.28
		C135.59,75.69,135.63,75.73,135.66,75.79z M134.83,71.24c-0.11-0.14-0.28-0.21-0.47-0.21c-0.15,0-0.32,0.05-0.49,0.19
		c-0.17,0.12-0.33,0.3-0.47,0.52c-0.15,0.23-0.28,0.51-0.37,0.84c-0.1,0.32-0.14,0.67-0.14,1.07c0.3,0,0.59-0.04,0.85-0.12
		c0.26-0.08,0.48-0.19,0.67-0.34c0.19-0.15,0.33-0.33,0.44-0.55c0.11-0.22,0.15-0.45,0.15-0.71
		C135.01,71.6,134.96,71.38,134.83,71.24z"/>
	<path d="M140.37,71.41c-0.05,0.14-0.11,0.25-0.18,0.33c-0.21-0.21-0.44-0.37-0.71-0.49c-0.26-0.12-0.54-0.18-0.78-0.18
		c-0.32,0-0.54,0.07-0.7,0.22c-0.15,0.14-0.23,0.33-0.23,0.55c0,0.1,0.01,0.19,0.04,0.28c0.03,0.08,0.07,0.18,0.12,0.26
		c0.07,0.1,0.15,0.19,0.26,0.32c0.12,0.11,0.26,0.25,0.43,0.4l0.52,0.47c0.17,0.15,0.3,0.29,0.43,0.41
		c0.11,0.12,0.19,0.26,0.26,0.38c0.07,0.12,0.12,0.25,0.15,0.37c0.03,0.14,0.04,0.28,0.04,0.43c0,0.27-0.05,0.52-0.19,0.77
		c-0.12,0.25-0.3,0.47-0.54,0.66c-0.23,0.18-0.49,0.33-0.81,0.44c-0.3,0.11-0.63,0.16-1,0.16c-0.43,0-0.74-0.07-0.95-0.19
		c-0.19-0.14-0.3-0.33-0.3-0.59c0-0.12,0.03-0.23,0.07-0.32c0.03-0.1,0.08-0.18,0.15-0.26c0.19,0.19,0.4,0.33,0.62,0.43
		c0.22,0.1,0.47,0.15,0.71,0.15c0.16,0,0.31-0.03,0.45-0.07c0.15-0.04,0.28-0.11,0.38-0.19c0.11-0.08,0.19-0.18,0.25-0.29
		c0.06-0.12,0.1-0.25,0.1-0.4c0-0.11-0.01-0.22-0.04-0.32c-0.03-0.1-0.07-0.21-0.14-0.3c-0.07-0.11-0.15-0.22-0.26-0.33
		c-0.11-0.12-0.25-0.26-0.41-0.41l-0.49-0.44c-0.15-0.15-0.28-0.27-0.38-0.4c-0.11-0.12-0.19-0.25-0.25-0.37
		c-0.07-0.12-0.11-0.25-0.14-0.37c-0.03-0.12-0.04-0.26-0.04-0.41c0-0.23,0.05-0.45,0.16-0.67c0.1-0.21,0.25-0.4,0.43-0.58
		c0.19-0.16,0.41-0.3,0.67-0.41c0.26-0.1,0.56-0.15,0.88-0.15c0.49,0,0.87,0.07,1.11,0.21c0.26,0.14,0.38,0.32,0.38,0.54
		C140.44,71.15,140.41,71.27,140.37,71.41z"/>
</g>
</svg>
